<svg xmlns="http://www.w3.org/2000/svg" width="95" height="83" fill="none">
  <defs>
    <linearGradient id="g" x1="47.5" y1="0" x2="47.5" y2="82" gradientUnits="userSpaceOnUse">
      <stop stop-color="#7C3AED"/>
      <stop offset="50%" stop-color="#8B5CF6"/>
      <stop offset="1" stop-color="#A78BFA"/>
    </linearGradient>
    <filter id="shadow" x="-5%" y="-5%" width="110%" height="115%">
      <feDropShadow dx="0" dy="2" stdDeviation="3" flood-color="#7C3AED" flood-opacity="0.3"/>
    </filter>
  </defs>
  <!-- Hexagon background -->
  <path fill="url(#g)" d="M66.657 0H28.343a7.948 7.948 0 0 0-6.887 3.979L2.288 37.235a7.948 7.948 0 0 0 0 7.938L21.456 78.43a7.948 7.948 0 0 0 6.887 3.979h38.314a7.948 7.948 0 0 0 6.886-3.98l19.17-33.256a7.948 7.948 0 0 0 0-7.938L73.542 3.98A7.948 7.948 0 0 0 66.657 0Z" filter="url(#shadow)"/>
  <!-- Omni-Builder mark -->
  <g>
    <path d="M47.5 16L36 25v16.5L47.5 50 59 41.5V25L47.5 16Z" fill="none" stroke="rgba(255,255,255,0.9)" stroke-width="1.5"/>
    <path d="M41 28.5L36 25l11.5-9L59 25l-5 3.5" fill="none" stroke="rgba(255,255,255,0.7)" stroke-width="1.2" stroke-linejoin="round"/>
    <circle cx="47.5" cy="33" r="4" fill="rgba(255,255,255,0.95)"/>
    <path d="M47.5 37v5M47.5 42l-4 4M47.5 42l4 4" stroke="rgba(255,255,255,0.5)" stroke-width="1" stroke-linecap="round"/>
  </g>
</svg>
