<svg version="1.1" id="Layer_1" xmlns="http://www.w3.org/2000/svg" xmlns:xlink="http://www.w3.org/1999/xlink" x="0px" y="0px"
	 width="100%" viewBox="0 0 490 532" enable-background="new 0 0 490 532" xml:space="preserve">
<path fill="#FEFEFE" opacity="1.000000" stroke="none"
	d="
M263.000000,533.000000
	C175.354645,533.000000 88.209305,533.000000 1.031976,533.000000
	C1.031976,355.731354 1.031976,178.462708 1.031976,1.097028
	C164.228653,1.097028 327.457367,1.097028 490.843048,1.097028
	C490.843048,178.333221 490.843048,355.666595 490.843048,533.000000
	C415.129425,533.000000 339.314697,533.000000 263.000000,533.000000
M367.127136,404.630646
	C387.378601,392.455627 407.595093,380.221802 427.906708,368.147949
	C432.835297,365.218262 435.123108,361.396912 435.078247,355.539062
	C434.893097,331.381958 434.721558,307.217712 435.148041,283.066742
	C435.303009,274.290924 431.877045,268.775757 424.585480,264.406891
	C405.030182,252.689987 385.779480,240.465088 366.237396,228.725647
	C359.829895,224.876541 357.011108,219.855698 357.092743,212.381638
	C357.396576,184.560120 357.383423,156.735077 357.460663,128.911270
	C357.467133,126.585640 357.214966,124.260452 357.162109,121.933258
	C357.049500,116.974670 354.527283,113.319618 350.543976,110.845856
	C320.433533,92.146370 290.251221,73.562668 260.115295,54.904072
	C255.810028,52.238453 251.654465,52.362385 247.446182,54.992489
	C217.529175,73.690117 187.587509,92.348579 157.745102,111.164520
	C155.762894,112.414322 154.531860,114.855522 152.790375,116.934883
	C165.696289,125.078262 177.732071,132.486984 189.545609,140.234589
	C193.316925,142.707901 196.431946,142.634064 200.081711,140.324188
	C206.969070,135.965286 213.907959,131.672989 220.986969,127.636330
	C226.931335,124.246674 228.828094,125.291168 228.976578,132.000717
	C229.278839,145.657730 229.261230,159.321838 229.569733,172.978638
	C229.623962,175.379547 230.624771,177.759094 231.188431,180.148499
	C231.738876,180.198563 232.289307,180.248642 232.839737,180.298721
	C239.890076,170.697098 246.940430,161.095459 254.485504,150.820068
	C262.530914,161.684845 270.058807,171.850739 277.586700,182.016617
	C279.848114,162.612869 275.827911,143.692047 280.374634,123.856468
	C288.508545,128.655212 296.025085,132.868561 303.261749,137.517578
	C305.028564,138.652649 306.508789,141.064621 307.011383,143.156097
	C307.930695,146.981934 308.400543,151.006226 308.404175,154.948349
	C308.489075,247.249756 308.478821,339.551239 308.560852,431.852661
	C308.562286,433.466858 309.148560,436.183411 310.043213,436.452393
	C311.648468,436.935059 313.972839,436.414215 315.516479,435.501038
	C332.560303,425.418396 349.511566,415.179260 367.127136,404.630646
M118.927109,135.433578
	C106.367378,143.599976 93.892052,151.900604 81.211258,159.874481
	C75.136528,163.694382 72.146133,168.799805 72.150108,175.929718
	C72.182907,234.750366 72.170609,293.571045 72.165596,352.391724
	C72.164970,359.786743 74.934380,365.261810 81.653275,369.186127
	C103.351746,381.859711 124.874657,394.837036 146.353317,407.881531
	C151.624588,411.082916 156.140228,410.710754 161.114090,407.316010
	C169.497116,401.594421 177.865662,395.763977 186.721878,390.846649
	C196.591660,385.366608 200.378113,377.750732 200.329422,366.452240
	C200.062302,304.467590 200.352615,242.480560 200.420532,180.494308
	C200.425278,176.166672 200.438126,171.811752 199.988831,167.517471
	C199.345535,161.369034 197.177322,155.904755 191.567352,152.414856
	C176.734650,143.187546 161.915176,133.938995 147.101685,124.680878
	C142.991806,122.112282 138.997742,122.206474 134.973541,124.898865
	C129.855591,128.323029 124.688156,131.673218 118.927109,135.433578
M255.435974,469.109985
	C259.737640,467.517151 264.227448,466.296478 268.294708,464.240082
	C273.745697,461.484100 278.691559,457.716888 284.173553,455.036896
	C293.740265,450.360046 299.297974,443.284668 299.335297,432.407990
	C299.380341,419.273895 299.345978,406.139526 299.345978,391.210724
	C293.924377,393.831696 289.670105,395.772552 285.523804,397.921722
	C280.153015,400.705536 278.511597,399.918518 278.508636,394.098755
	C278.483337,344.447906 278.469513,294.796997 278.520386,245.146210
	C278.528351,237.359833 280.149170,236.082504 288.001282,235.772217
	C292.113922,235.609680 296.201721,234.818283 301.391144,234.175919
	C285.163788,210.316147 269.897797,187.869904 254.507645,165.241089
	C239.021973,188.152588 223.779373,210.704422 207.727676,234.453339
	C212.317108,235.013412 215.668549,235.699905 219.034515,235.780640
	C228.763885,236.014038 229.489792,236.642395 229.503326,246.439026
	C229.515518,255.269531 229.505630,264.100067 229.506073,272.930573
	C229.508026,311.751556 229.545258,350.572601 229.443100,389.393311
	C229.435272,392.369171 228.443924,395.342438 227.909714,398.316956
	C225.041473,397.315796 221.662003,396.967896 219.397247,395.195587
	C211.394836,388.933197 204.291443,388.795410 196.162338,395.481506
	C189.139191,401.257935 180.986176,405.660156 173.336075,410.675140
	C170.729324,412.383972 168.133072,414.108765 164.623505,416.426208
	C168.159149,419.219177 170.881912,421.852997 174.035400,423.783173
	C195.322174,436.812408 216.606522,449.851898 238.118149,462.502930
	C243.154068,465.464539 249.059921,466.946960 255.435974,469.109985
M413.735107,246.773849
	C420.778473,249.771606 425.952026,256.881927 434.877960,256.963837
	C434.877960,227.667053 435.062134,199.054504 434.615021,170.451828
	C434.566162,167.326523 431.582367,163.213486 428.772400,161.332199
	C410.118591,148.843246 391.164734,136.800827 372.251251,124.702606
	C367.729279,121.810059 366.042114,122.861801 366.008026,128.352844
	C365.924286,141.838196 366.178436,155.333099 365.734558,168.805634
	C365.511078,175.588547 367.791870,179.645142 374.203156,182.198044
	C381.629456,185.155136 386.614594,190.888443 387.232483,199.069031
	C387.780243,206.320587 387.614380,213.675232 387.123932,220.941208
	C386.692719,227.330475 388.910156,231.887451 394.297577,235.093689
	C400.585022,238.835556 406.863434,242.592606 413.735107,246.773849
z"/>
<path fill="#010101" opacity="1.000000" stroke="none"
	d="
M366.807526,404.806580
	C349.511566,415.179260 332.560303,425.418396 315.516479,435.501038
	C313.972839,436.414215 311.648468,436.935059 310.043213,436.452393
	C309.148560,436.183411 308.562286,433.466858 308.560852,431.852661
	C308.478821,339.551239 308.489075,247.249756 308.404175,154.948349
	C308.400543,151.006226 307.930695,146.981934 307.011383,143.156097
	C306.508789,141.064621 305.028564,138.652649 303.261749,137.517578
	C296.025085,132.868561 288.508545,128.655212 280.374634,123.856468
	C275.827911,143.692047 279.848114,162.612869 277.586700,182.016617
	C270.058807,171.850739 262.530914,161.684845 254.485504,150.820068
	C246.940430,161.095459 239.890076,170.697098 232.839737,180.298721
	C232.289307,180.248642 231.738876,180.198563 231.188431,180.148499
	C230.624771,177.759094 229.623962,175.379547 229.569733,172.978638
	C229.261230,159.321838 229.278839,145.657730 228.976578,132.000717
	C228.828094,125.291168 226.931335,124.246674 220.986969,127.636330
	C213.907959,131.672989 206.969070,135.965286 200.081711,140.324188
	C196.431946,142.634064 193.316925,142.707901 189.545609,140.234589
	C177.732071,132.486984 165.696289,125.078262 152.790375,116.934883
	C154.531860,114.855522 155.762894,112.414322 157.745102,111.164520
	C187.587509,92.348579 217.529175,73.690117 247.446182,54.992489
	C251.654465,52.362385 255.810028,52.238453 260.115295,54.904072
	C290.251221,73.562668 320.433533,92.146370 350.543976,110.845856
	C354.527283,113.319618 357.049500,116.974670 357.162109,121.933258
	C357.214966,124.260452 357.467133,126.585640 357.460663,128.911270
	C357.383423,156.735077 357.396576,184.560120 357.092743,212.381638
	C357.011108,219.855698 359.829895,224.876541 366.237396,228.725647
	C385.779480,240.465088 405.030182,252.689987 424.585480,264.406891
	C431.877045,268.775757 435.303009,274.290924 435.148041,283.066742
	C434.721558,307.217712 434.893097,331.381958 435.078247,355.539062
	C435.123108,361.396912 432.835297,365.218262 427.906708,368.147949
	C407.595093,380.221802 387.378601,392.455627 366.807526,404.806580
M385.715515,333.944733
	C386.469788,329.727386 387.610443,325.534668 387.881531,321.286499
	C388.228455,315.849579 388.234833,310.330963 387.679108,304.920380
	C387.377594,301.984589 386.433319,298.052734 384.350372,296.548950
	C376.084503,290.581299 367.255402,285.393738 358.365936,279.746155
	C358.365936,304.942047 358.365936,329.268036 358.365936,353.584381
	C363.666199,350.864624 368.625397,348.190399 373.698364,345.752991
	C378.826660,343.289001 382.902893,339.836365 385.715515,333.944733
z"/>
<path fill="#010101" opacity="1.000000" stroke="none"
	d="
M119.234581,135.244446
	C124.688156,131.673218 129.855591,128.323029 134.973541,124.898865
	C138.997742,122.206474 142.991806,122.112282 147.101685,124.680878
	C161.915176,133.938995 176.734650,143.187546 191.567352,152.414856
	C197.177322,155.904755 199.345535,161.369034 199.988831,167.517471
	C200.438126,171.811752 200.425278,176.166672 200.420532,180.494308
	C200.352615,242.480560 200.062302,304.467590 200.329422,366.452240
	C200.378113,377.750732 196.591660,385.366608 186.721878,390.846649
	C177.865662,395.763977 169.497116,401.594421 161.114090,407.316010
	C156.140228,410.710754 151.624588,411.082916 146.353317,407.881531
	C124.874657,394.837036 103.351746,381.859711 81.653275,369.186127
	C74.934380,365.261810 72.164970,359.786743 72.165596,352.391724
	C72.170609,293.571045 72.182907,234.750366 72.150108,175.929718
	C72.146133,168.799805 75.136528,163.694382 81.211258,159.874481
	C93.892052,151.900604 106.367378,143.599976 119.234581,135.244446
M151.530838,276.500275
	C151.530838,248.853592 151.538864,221.206909 151.514008,193.560242
	C151.512222,191.573837 151.495850,189.541122 151.097565,187.610107
	C149.892471,181.767563 145.655960,178.902573 139.784714,179.742783
	C129.878860,181.160370 120.678345,191.872818 120.839470,201.743454
	C120.977936,210.225906 121.139374,218.709152 121.153419,227.192291
	C121.211075,261.997864 121.131340,296.804230 121.423851,331.607635
	C121.444260,334.036407 123.515190,337.254700 125.604683,338.713715
	C132.959717,343.849579 140.729355,348.393433 148.370361,353.115540
	C149.258316,353.664307 150.325317,353.923370 151.530792,354.405273
	C151.530792,328.461029 151.530792,302.980652 151.530838,276.500275
z"/>
<path fill="#010101" opacity="1.000000" stroke="none"
	d="
M255.000748,469.109955
	C249.059921,466.946960 243.154068,465.464539 238.118149,462.502930
	C216.606522,449.851898 195.322174,436.812408 174.035400,423.783173
	C170.881912,421.852997 168.159149,419.219177 164.623505,416.426208
	C168.133072,414.108765 170.729324,412.383972 173.336075,410.675140
	C180.986176,405.660156 189.139191,401.257935 196.162338,395.481506
	C204.291443,388.795410 211.394836,388.933197 219.397247,395.195587
	C221.662003,396.967896 225.041473,397.315796 227.909729,398.316956
	C228.443924,395.342438 229.435272,392.369171 229.443100,389.393311
	C229.545258,350.572601 229.508026,311.751556 229.506073,272.930573
	C229.505630,264.100067 229.515518,255.269531 229.503326,246.439026
	C229.489792,236.642395 228.763885,236.014038 219.034515,235.780640
	C215.668549,235.699905 212.317108,235.013412 207.727676,234.453339
	C223.779373,210.704422 239.021973,188.152588 254.507645,165.241089
	C269.897797,187.869904 285.163788,210.316147 301.391144,234.175919
	C296.201721,234.818283 292.113922,235.609680 288.001282,235.772217
	C280.149170,236.082504 278.528351,237.359833 278.520386,245.146210
	C278.469513,294.796997 278.483337,344.447906 278.508636,394.098755
	C278.511597,399.918518 280.153015,400.705536 285.523804,397.921722
	C289.670105,395.772552 293.924377,393.831696 299.345978,391.210724
	C299.345978,406.139526 299.380341,419.273895 299.335297,432.407990
	C299.297974,443.284668 293.740265,450.360046 284.173553,455.036896
	C278.691559,457.716888 273.745697,461.484100 268.294708,464.240082
	C264.227448,466.296478 259.737640,467.517151 255.000748,469.109955
z"/>
<path fill="#010101" opacity="1.000000" stroke="none"
	d="
M413.440430,246.558472
	C406.863434,242.592606 400.585022,238.835556 394.297577,235.093689
	C388.910156,231.887451 386.692719,227.330475 387.123932,220.941208
	C387.614380,213.675232 387.780243,206.320587 387.232483,199.069031
	C386.614594,190.888443 381.629456,185.155136 374.203156,182.198044
	C367.791870,179.645142 365.511078,175.588547 365.734558,168.805634
	C366.178436,155.333099 365.924286,141.838196 366.008026,128.352844
	C366.042114,122.861801 367.729279,121.810059 372.251251,124.702606
	C391.164734,136.800827 410.118591,148.843246 428.772400,161.332199
	C431.582367,163.213486 434.566162,167.326523 434.615021,170.451828
	C435.062134,199.054504 434.877960,227.667053 434.877960,256.963837
	C425.952026,256.881927 420.778473,249.771606 413.440430,246.558472
z"/>
<path fill="#FDFDFD" opacity="1.000000" stroke="none"
	d="
M385.531372,334.281799
	C382.902893,339.836365 378.826660,343.289001 373.698364,345.752991
	C368.625397,348.190399 363.666199,350.864624 358.365936,353.584381
	C358.365936,329.268036 358.365936,304.942047 358.365936,279.746155
	C367.255402,285.393738 376.084503,290.581299 384.350372,296.548950
	C386.433319,298.052734 387.377594,301.984589 387.679108,304.920380
	C388.234833,310.330963 388.228455,315.849579 387.881531,321.286499
	C387.610443,325.534668 386.469788,329.727386 385.531372,334.281799
z"/>
<path fill="#F8F8F8" opacity="1.000000" stroke="none"
	d="
M151.530823,277.000305
	C151.530792,302.980652 151.530792,328.461029 151.530792,354.405273
	C150.325317,353.923370 149.258316,353.664307 148.370361,353.115540
	C140.729355,348.393433 132.959717,343.849579 125.604683,338.713715
	C123.515190,337.254700 121.444260,334.036407 121.423851,331.607635
	C121.131340,296.804230 121.211075,261.997864 121.153419,227.192291
	C121.139374,218.709152 120.977936,210.225906 120.839470,201.743454
	C120.678345,191.872818 129.878860,181.160370 139.784714,179.742783
	C145.655960,178.902573 149.892471,181.767563 151.097565,187.610107
	C151.495850,189.541122 151.512222,191.573837 151.514008,193.560242
	C151.538864,221.206909 151.530838,248.853592 151.530823,277.000305
z"/>
</svg>
