<svg version="1.1" id="Layer_1" xmlns="http://www.w3.org/2000/svg" xmlns:xlink="http://www.w3.org/1999/xlink" x="0px" y="0px"
	 width="100%" viewBox="0 0 1024 544" enable-background="new 0 0 1024 544" xml:space="preserve">
<path fill="#000000" opacity="1.000000" stroke="none"
	d="
M330.824463,277.000000
	C330.812347,256.338196 330.653381,236.174652 330.897339,216.015961
	C330.953583,211.368317 329.487213,208.419815 325.406952,206.505295
	C321.841522,204.832336 318.945251,201.839050 314.258057,200.755753
	C312.108337,211.580933 314.088470,222.297577 313.532349,234.264618
	C307.320953,228.556381 304.999420,221.466324 299.575745,216.400665
	C294.055542,221.122269 291.888824,228.218628 286.676758,232.813065
	C284.319885,231.565765 285.053406,229.521973 285.027435,227.860733
	C284.915405,220.697296 284.965393,213.531509 284.907623,206.366974
	C284.862335,200.749496 283.705139,200.106064 278.784210,203.029388
	C275.061676,205.240799 271.437622,207.617661 267.723724,209.844162
	C266.473328,210.593781 265.109650,211.656052 263.559113,210.688904
	C255.849426,205.879959 248.175171,201.014206 240.766968,196.344055
	C241.462372,193.280685 243.392502,192.724304 244.888840,191.787674
	C261.549164,181.359314 278.288574,171.055725 294.863708,160.494171
	C298.015350,158.485947 300.367584,158.536621 303.436920,160.466629
	C320.639404,171.283646 337.909271,181.994888 355.241180,192.603302
	C358.375580,194.521774 359.264709,196.956512 359.239014,200.455017
	C359.110535,217.949432 359.242706,235.445709 359.129364,252.940338
	C359.107758,256.279663 360.079376,258.434479 363.076996,260.231567
	C375.362762,267.596924 387.433990,275.320160 399.720306,282.684570
	C403.148926,284.739655 404.417023,287.190338 404.361328,291.169861
	C404.158600,305.663452 404.258545,320.161896 404.331238,334.658081
	C404.345367,337.477875 403.972626,339.727966 401.203583,341.384430
	C379.048370,354.637878 356.963928,368.009521 334.850830,381.333405
	C334.018463,381.834930 333.192566,382.515167 330.824158,381.548584
	C330.824158,347.219421 330.824158,312.359711 330.824463,277.000000
M376.649200,311.519958
	C375.967590,307.735382 378.556641,303.079163 374.778198,300.230469
	C370.198425,296.777618 365.036346,294.097076 359.652588,290.791534
	C359.652588,305.369720 359.652588,319.191376 359.652588,333.995361
	C362.489960,332.350281 364.473969,330.826385 366.713165,329.968689
	C374.900452,326.832520 378.189270,321.071625 376.649200,311.519958
z"/>
<path fill="#000000" opacity="1.000000" stroke="none"
	d="
M259.835938,215.135498
	C266.726166,217.843567 268.184509,222.700165 268.126831,229.470749
	C267.803345,267.451294 267.844910,305.436218 268.031097,343.418335
	C268.055573,348.412689 266.483795,351.378876 262.199554,353.822418
	C255.991333,357.363251 250.081924,361.445190 244.168594,365.477478
	C241.742645,367.131714 239.862915,366.974854 237.384186,365.455963
	C224.463150,357.538330 211.486252,349.706329 198.385056,342.091858
	C194.894394,340.063110 193.664001,337.614380 193.678329,333.650604
	C193.803558,298.999268 193.809494,264.347107 193.678299,229.695847
	C193.663864,225.878799 194.969421,223.597504 198.135483,221.598450
	C208.835464,214.842407 219.420929,207.901276 229.947403,200.876877
	C232.511597,199.165756 234.564240,198.991180 237.193420,200.722687
	C244.563110,205.576202 252.076859,210.210968 259.835938,215.135498
M222.209595,255.503830
	C222.211914,276.624237 222.202759,297.744690 222.235794,318.865021
	C222.238831,320.804840 221.610886,323.156067 223.561615,324.432983
	C228.476624,327.650269 233.545486,330.632477 239.710251,334.420135
	C239.710251,331.195374 239.709259,329.425446 239.710388,327.655518
	C239.728607,299.051514 239.748138,270.447510 239.762299,241.843521
	C239.762955,240.513504 239.824463,239.170944 239.672058,237.855713
	C239.150528,233.355438 234.952805,231.276657 230.898102,233.299637
	C224.779526,236.352341 220.616974,240.385635 222.150803,248.033600
	C222.567566,250.111633 222.211197,252.344742 222.209595,255.503830
z"/>
<path fill="#000000" opacity="1.000000" stroke="none"
	d="
M267.088135,357.044586
	C270.583954,353.875122 273.737488,354.022858 277.212067,356.570587
	C279.180084,358.013733 281.302704,359.443512 283.912445,359.882782
	C285.748016,358.502838 284.976471,356.518982 284.977966,354.829285
	C285.001648,327.854187 284.979034,300.878998 284.923462,273.903931
	C284.907715,266.253998 286.314728,264.741791 276.768585,265.171967
	C275.645508,265.222565 274.418915,265.330444 272.780457,263.662231
	C281.353058,251.050797 290.038422,238.273438 299.524628,224.317947
	C308.800690,237.951599 317.470764,250.694565 326.300232,263.671783
	C323.057434,265.896057 320.322174,265.107300 317.787842,265.210785
	C314.941895,265.327026 313.408752,266.470642 313.410614,269.403748
	C313.429352,299.207794 313.443390,329.011871 313.487183,358.815887
	C313.487823,359.254517 313.851562,359.692657 314.124390,360.308197
	C318.153687,360.482147 320.466034,356.120758 325.324585,356.165527
	C325.324585,362.595001 324.704834,368.912964 325.470947,375.058167
	C326.598053,384.098755 323.597748,390.011841 314.989563,393.184692
	C312.840881,393.976715 310.743164,395.260132 309.010742,396.765137
	C302.663086,402.279480 297.063812,401.657471 290.111877,396.900330
	C278.731934,389.113129 266.487671,382.593353 254.662247,375.449127
	C252.316254,374.031830 249.519897,373.085480 247.738739,369.825867
	C254.122955,365.607208 260.454742,361.423218 267.088135,357.044586
z"/>
<path fill="#000000" opacity="1.000000" stroke="none"
	d="
M547.847900,209.263947
	C548.446350,206.604691 550.239197,206.770187 551.893188,206.654221
	C566.717773,205.614822 566.692871,205.628448 574.306335,218.231628
	C581.370117,229.924866 588.484741,241.587418 595.604980,253.246368
	C596.454834,254.637939 597.480774,255.921967 598.968079,258.022766
	C603.984985,249.640686 608.645081,241.861511 613.298401,234.078339
	C618.085266,226.071854 622.934875,218.101532 627.607544,210.028854
	C629.039062,207.555740 630.868774,206.680984 633.670898,206.601547
	C649.144409,206.163071 649.121277,206.105072 649.132202,221.545425
	C649.147827,243.710144 649.095398,265.875854 649.317200,288.038696
	C649.364075,292.721588 648.059448,294.852264 643.117981,294.366791
	C639.816589,294.042480 636.446106,294.124329 633.127930,294.345764
	C629.212341,294.607025 627.805542,292.988312 627.844360,289.124878
	C627.971619,276.460754 627.882812,263.794373 627.856873,251.128891
	C627.854492,249.991089 627.705933,248.853577 627.508240,246.065369
	C625.357788,249.569931 623.912598,251.851990 622.539124,254.176376
	C617.115540,263.355164 611.757263,272.572845 606.289001,281.724884
	C603.000610,287.228455 594.070007,287.118378 590.710327,281.617981
	C583.950317,270.550537 577.187927,259.484589 570.198608,248.044983
	C568.482056,249.896973 569.040222,251.751144 569.033997,253.389740
	C568.989197,265.221710 568.922485,277.055176 569.073853,288.885468
	C569.125488,292.921234 567.748901,294.771362 563.545532,294.358612
	C561.069397,294.115479 558.550293,294.311829 556.050476,294.309174
	C547.749207,294.300415 547.739075,294.300171 547.736572,286.230072
	C547.729126,262.398773 547.729187,238.567474 547.730896,214.736176
	C547.731018,213.069855 547.768433,211.403549 547.847900,209.263947
z"/>
<path fill="#000000" opacity="1.000000" stroke="none"
	d="
M742.974976,259.005432
	C739.150208,254.440460 735.553711,250.147232 732.008118,245.914825
	C730.276733,246.973602 730.629761,248.185349 730.641113,249.330139
	C730.771484,262.483704 730.811707,275.638733 731.049866,288.790222
	C731.120850,292.709808 730.000427,294.724976 725.660583,294.383575
	C721.852539,294.083984 717.989685,294.109528 714.175537,294.361877
	C710.065369,294.633789 708.639221,293.077271 708.680725,288.931152
	C708.854065,271.609283 708.759277,254.284790 708.762573,236.961258
	C708.764099,228.799225 708.928833,220.632538 708.698120,212.477066
	C708.580139,208.307419 709.829163,206.970139 714.254395,206.452103
	C724.098450,205.299759 730.501465,208.808334 736.398315,216.838440
	C746.215149,230.206497 757.383179,242.582336 768.900330,256.484253
	C768.900330,252.806274 768.900757,250.402603 768.900269,247.998947
	C768.897949,236.172348 769.048889,224.342728 768.816223,212.520660
	C768.725586,207.916138 770.371277,206.230789 774.926270,206.570450
	C778.731934,206.854233 782.585205,206.628601 786.411072,206.472046
	C789.706665,206.337204 791.235413,207.481003 791.221680,211.058578
	C791.121643,237.210022 791.117859,263.362122 791.202271,289.513641
	C791.214355,293.260742 789.573975,293.976929 786.121399,294.447876
	C776.382507,295.776367 769.510803,292.576019 763.790283,284.371826
	C757.620850,275.523804 750.122070,267.602631 742.974976,259.005432
z"/>
<path fill="#000000" opacity="1.000000" stroke="none"
	d="
M510.731262,211.089935
	C528.522949,221.828384 537.091431,240.506699 533.019165,259.142181
	C528.472839,279.947083 513.682007,293.266083 492.080780,295.383850
	C471.629761,297.388855 454.205078,291.451111 443.316956,273.096771
	C426.255219,244.335419 445.625000,208.276627 478.946442,205.563507
	C489.988708,204.664429 500.499725,205.705139 510.731262,211.089935
M499.470581,227.931885
	C498.122833,227.283173 496.811707,226.540085 495.421539,226.000687
	C484.477966,221.754456 471.964813,224.972031 465.158752,233.742737
	C458.377716,242.481171 458.215546,257.393524 464.801910,266.555756
	C471.138306,275.370239 483.456238,279.199860 494.319000,275.390900
	C504.625275,271.777069 510.166321,264.129822 511.239807,253.412811
	C512.278748,243.041168 508.799591,234.466141 499.470581,227.931885
z"/>
<path fill="#000000" opacity="1.000000" stroke="none"
	d="
M667.721313,263.999939
	C667.728821,246.531799 667.864380,229.562134 667.657959,212.596619
	C667.602966,208.076675 668.942993,206.183365 673.600891,206.581253
	C677.233887,206.891586 680.930664,206.848175 684.570740,206.578781
	C688.775452,206.267578 690.122742,208.076294 690.073120,212.090439
	C689.931458,223.566971 690.042603,235.046570 690.044189,246.524963
	C690.046082,260.665039 689.932129,274.806366 690.100281,288.944397
	C690.148743,293.019806 688.838928,294.687683 684.647827,294.377502
	C680.677124,294.083618 676.660400,294.166870 672.677124,294.358673
	C669.051636,294.533295 667.595764,293.148407 667.669128,289.452057
	C667.834167,281.137634 667.721130,272.817657 667.721313,263.999939
z"/>
<path fill="#000000" opacity="1.000000" stroke="none"
	d="
M809.895874,246.000000
	C809.904968,234.356918 810.036865,223.211853 809.858398,212.071762
	C809.792480,207.959366 811.285706,206.354248 815.383911,206.602585
	C819.194458,206.833511 823.044861,206.831238 826.852600,206.567795
	C831.000916,206.280807 832.330750,207.920258 832.303101,212.030228
	C832.155457,233.982803 832.239624,255.936920 832.242249,277.890503
	C832.242676,281.882019 832.147217,285.876160 832.262878,289.864258
	C832.354431,293.021423 831.068115,294.425964 827.850586,294.327667
	C823.696716,294.200714 819.522949,294.096680 815.381714,294.359528
	C811.255615,294.621429 809.783447,293.022644 809.829895,288.909668
	C809.989624,274.774658 809.893982,260.636780 809.895874,246.000000
z"/>
<path fill="#000000" opacity="1.000000" stroke="none"
	d="
M404.288666,247.000153
	C404.288788,257.450775 404.288788,267.401398 404.288788,277.189819
	C401.119293,278.250824 399.606018,276.257782 397.861237,275.226105
	C392.129944,271.837219 386.575989,268.144928 380.806152,264.826019
	C377.729340,263.056213 376.008911,260.958008 376.606659,257.243103
	C376.867981,255.619064 376.462341,253.891159 376.696228,252.258652
	C377.936798,243.599564 376.284760,236.516861 367.049011,233.093414
	C365.286957,232.440247 364.145264,230.830994 364.142242,228.772675
	C364.128845,219.618134 364.135712,210.463516 364.178406,201.309128
	C364.180420,200.882736 364.597504,200.458298 364.762543,200.144562
	C365.961456,199.457626 366.827911,200.033783 367.661438,200.570557
	C378.579498,207.601578 389.445984,214.714203 400.431763,221.637558
	C403.308838,223.450745 404.466400,225.631302 404.339355,229.015915
	C404.120880,234.836426 404.285004,240.671310 404.288666,247.000153
z"/>
<path fill="#000000" opacity="1.000000" stroke="none"
	d="
M522.874817,328.099060
	C520.805054,331.409821 520.917480,333.772644 523.316406,336.837402
	C527.683899,342.417267 525.406738,350.588135 518.991028,353.084290
	C508.892975,357.013092 498.276733,354.923248 487.867310,355.071472
	C485.936096,355.098969 485.671265,353.316376 485.669647,351.748230
	C485.657257,339.939789 485.688354,328.131287 485.649017,316.322968
	C485.640625,313.800720 486.765289,312.677979 489.251343,312.699646
	C496.401154,312.762024 503.582031,312.380310 510.693695,312.921814
	C520.315002,313.654419 523.925842,318.351105 522.874817,328.099060
M497.698608,345.557556
	C501.299042,346.417633 504.946594,345.977386 508.563324,345.823456
	C510.931030,345.722687 513.489258,345.113739 513.535217,342.097900
	C513.581055,339.085083 511.141052,338.451874 508.695282,338.268982
	C506.882141,338.133423 505.056335,338.133331 503.236176,338.132629
	C497.005219,338.130310 496.608521,338.590210 497.698608,345.557556
M497.346619,323.825378
	C497.005981,326.004913 496.519775,328.514282 499.342499,329.198273
	C502.748657,330.023651 506.296234,329.988129 509.616425,328.531097
	C511.007935,327.920441 512.314697,326.968414 512.039062,325.164612
	C511.778412,323.458801 510.410828,322.541595 508.892395,322.396271
	C505.153168,322.038452 501.330963,321.080444 497.346619,323.825378
z"/>
<path fill="#000000" opacity="1.000000" stroke="none"
	d="
M649.590515,334.006897
	C649.482605,328.194000 649.392700,322.879181 649.263855,317.565338
	C649.203979,315.095825 649.215881,312.712982 652.648315,312.735901
	C659.460083,312.781403 666.337097,312.270844 673.069458,313.031494
	C685.889648,314.480042 692.488831,322.308563 692.320984,334.730164
	C692.168091,346.048645 684.919128,353.772003 672.513428,354.978668
	C666.089417,355.603516 659.562317,355.151215 653.082336,355.225983
	C650.077148,355.260651 649.587219,353.394379 649.601807,350.960693
	C649.634705,345.475769 649.599854,339.990509 649.590515,334.006897
M660.952087,338.365417
	C661.342163,340.713806 659.970886,343.666168 662.586365,345.263184
	C668.415710,348.822540 679.727722,343.059174 680.735229,336.163025
	C682.190002,326.205048 672.968994,319.022064 663.150940,322.403870
	C661.067078,323.121643 661.000549,324.751099 660.972595,326.410278
	C660.910950,330.074463 660.951965,333.740387 660.952087,338.365417
z"/>
<path fill="#000000" opacity="1.000000" stroke="none"
	d="
M782.131836,335.780579
	C780.369934,337.798492 778.788452,339.482178 776.958618,341.430267
	C778.016785,346.297302 783.126404,349.245697 784.387024,354.270691
	C776.502991,356.825470 773.328979,355.785950 769.118774,349.488861
	C768.194702,348.106689 767.253784,346.730469 766.234802,345.418182
	C764.428284,343.091949 761.864075,343.085999 759.396484,343.679138
	C756.706909,344.325592 757.189392,346.817627 757.377930,348.666504
	C757.870239,353.493744 756.386963,355.692566 751.066589,355.362701
	C747.121826,355.118073 745.846375,353.675476 745.889221,349.922424
	C746.010986,339.272064 745.998840,328.618134 745.859558,317.967957
	C745.810730,314.232758 746.979797,312.451202 751.018127,312.635223
	C756.499390,312.885010 762.006104,312.544220 767.491089,312.747650
	C780.828064,313.242310 787.155396,323.018829 782.131836,335.780579
M759.241089,322.485474
	C756.450928,323.875366 757.646179,326.497406 757.335815,328.653015
	C756.736877,332.812408 758.630920,334.452515 762.680847,334.009369
	C764.321716,333.829834 766.014893,333.978973 767.620605,333.658997
	C770.766907,333.032104 772.658264,330.999969 772.521362,327.753784
	C772.394287,324.737640 770.449707,322.851868 767.502441,322.483185
	C765.057556,322.177338 762.551086,322.363831 759.241089,322.485474
z"/>
<path fill="#000000" opacity="1.000000" stroke="none"
	d="
M732.629883,321.973389
	C727.341248,322.076263 722.513489,322.125061 717.685730,322.132599
	C715.243958,322.136383 713.437256,322.717926 713.406006,325.698853
	C713.371887,328.957794 715.569946,328.936188 717.826172,328.943665
	C721.489197,328.955841 725.152466,328.991333 728.815247,328.966919
	C731.991211,328.945770 733.260986,330.515106 733.186951,333.631226
	C733.114197,336.692719 731.880066,338.287201 728.679810,338.212341
	C725.351440,338.134491 722.019775,338.211609 718.690002,338.176788
	C715.864014,338.147217 713.340332,338.175049 713.306702,342.184937
	C713.273376,346.167175 715.922058,345.757782 718.403748,345.772797
	C722.899109,345.800018 727.398560,345.867554 731.889465,345.716217
	C735.678345,345.588501 736.180725,347.814941 736.235596,350.840851
	C736.292419,353.982056 735.123230,355.367371 731.851501,355.315613
	C723.361633,355.181366 714.867493,355.174316 706.377136,355.281433
	C703.189697,355.321655 701.825867,354.056793 701.840088,350.884277
	C701.890747,339.562164 701.900452,328.239319 701.820496,316.917511
	C701.796997,313.593994 703.434265,312.606293 706.471008,312.635803
	C714.462463,312.713501 722.455566,312.611633 730.447327,312.672729
	C732.162537,312.685822 734.659302,312.087891 734.987610,314.533447
	C735.327576,317.065186 736.778076,320.261902 732.629883,321.973389
z"/>
<path fill="#000000" opacity="1.000000" stroke="none"
	d="
M566.103271,312.723389
	C574.029480,312.708374 574.148499,312.710114 574.041504,320.053833
	C573.942383,326.858978 574.690247,333.701111 573.470947,340.466217
	C571.211182,353.004456 562.989136,356.112091 553.060059,355.863739
	C541.288879,355.569305 534.734131,348.484467 534.671387,337.327667
	C534.633057,330.508484 534.787598,323.685486 534.603333,316.871002
	C534.498047,312.980194 536.712952,312.560638 539.702026,312.653259
	C542.672363,312.745270 545.987793,312.067688 545.961060,316.782654
	C545.924255,323.268402 545.915039,329.757629 546.087097,336.240234
	C546.258179,342.685181 548.843079,345.740875 553.810486,345.801697
	C559.170044,345.867310 562.435730,342.298096 562.579773,335.892090
	C562.721802,329.574554 562.650574,323.252106 562.657593,316.931793
	C562.659973,314.817413 562.779541,312.819702 566.103271,312.723389
z"/>
<path fill="#000000" opacity="1.000000" stroke="none"
	d="
M622.629883,345.574158
	C627.721436,345.652985 632.382324,345.782257 637.037415,345.669525
	C640.438660,345.587189 641.293030,347.352966 641.245239,350.342072
	C641.200500,353.137573 640.805298,355.285126 637.256470,355.255096
	C629.104309,355.186096 620.950745,355.197571 612.798645,355.275208
	C609.755737,355.304169 608.708191,353.832001 608.723083,350.977142
	C608.782166,339.663391 608.870728,328.347687 608.714355,317.035919
	C608.649414,312.337799 611.637512,312.713226 614.714417,312.681793
	C617.740173,312.650848 620.369751,312.646881 620.271973,316.956085
	C620.094604,324.771790 620.196411,332.595306 620.279480,340.414490
	C620.299255,342.279541 619.578125,344.570251 622.629883,345.574158
z"/>
<path fill="#000000" opacity="1.000000" stroke="none"
	d="
M585.665710,345.952515
	C585.656250,336.137573 585.837830,326.811249 585.560730,317.498566
	C585.417603,312.687317 588.142456,312.684998 591.596069,312.640228
	C595.071594,312.595123 597.299866,313.111542 597.214294,317.443756
	C597.003967,328.091888 596.972351,338.750580 597.212341,349.397308
	C597.315857,353.986115 595.701111,355.420013 591.136536,355.420959
	C586.537781,355.421906 585.191284,353.567749 585.654907,349.440887
	C585.765686,348.454865 585.668335,347.445435 585.665710,345.952515
z"/>
</svg>
