<svg xmlns="http://www.w3.org/2000/svg" viewBox="0 0 48 48" fill="none">
  <path d="M31.2 18.4H29.6C29.5 17.2 28.9 16.1 28 15.3C26.9 14.2 25.4 13.6 23.8 13.6C22.5 13.6 21.3 14 20.3 14.8C19.4 15.5 18.7 16.5 18.4 17.7H17.5C15.1 17.7 13.2 19.6 13.2 22C13.2 24.4 15.1 26.3 17.5 26.3H31.2C33.3 26.3 35 24.6 35 22.5C35 20.4 33.3 18.4 31.2 18.4Z" fill="#F6821F"/>
  <path d="M39.8 28.3H16.5C16.3 28.3 16.2 28.4 16.2 28.6L15.8 31.4C15.8 31.6 15.9 31.7 16.1 31.7H33.5C33.6 31.7 33.7 31.8 33.7 31.9L33.4 33.8C33.4 33.9 33.3 34 33.2 34H14.3C14.1 34 14 34.1 14 34.3L13.6 37.1C13.6 37.3 13.7 37.4 13.9 37.4H36.6C36.7 37.4 36.8 37.3 36.9 37.2L40.1 28.7C40.1 28.5 40 28.3 39.8 28.3Z" fill="#FBAD41"/>
</svg>
