<svg version="1.1" id="Layer_1" xmlns="http://www.w3.org/2000/svg" xmlns:xlink="http://www.w3.org/1999/xlink" x="0px" y="0px"
	 width="100%" viewBox="0 0 200 252" enable-background="new 0 0 200 252" xml:space="preserve">
<path fill="#DD2C01" opacity="1.000000" stroke="none"
	d="
M201.000000,146.000000
	C201.000000,146.444336 201.000000,146.888672 200.637848,147.874420
	C200.517136,151.610550 200.758575,154.805267 201.000000,158.000000
	C201.000000,158.750000 201.000000,159.500000 200.632996,160.789597
	C198.514740,177.361267 193.857834,192.428619 184.967148,205.982956
	C174.093689,222.560120 160.083572,235.538284 141.174011,242.760803
	C125.679176,235.644745 111.639969,226.905258 98.937576,215.666351
	C98.872429,214.897156 98.841949,214.457062 99.112267,213.827515
	C112.725082,190.815918 113.874496,167.234207 102.644066,143.482117
	C92.877640,122.826340 76.723068,109.264084 54.220421,103.413895
	C54.124924,103.224358 53.823673,102.925316 53.875961,102.493141
	C57.347141,61.554165 74.901154,28.544504 106.831573,1.937050
	C131.470673,32.426880 156.021072,62.241669 179.874771,92.603828
	C189.383301,104.706726 195.368591,118.902145 198.533295,134.113724
	C199.357498,138.075409 200.177872,142.037888 201.000000,146.000000
z"/>
<path fill="#FFFEFE" opacity="1.000000" stroke="none"
	d="
M201.000000,145.531342
	C200.177872,142.037888 199.357498,138.075409 198.533295,134.113724
	C195.368591,118.902145 189.383301,104.706726 179.874771,92.603828
	C156.021072,62.241669 131.470673,32.426880 106.831573,1.937050
	C74.901154,28.544504 57.347141,61.554165 53.483315,102.470093
	C41.576412,100.202232 30.054722,99.817307 18.620396,102.718910
	C16.441990,103.271713 13.737513,105.166443 12.932909,107.123383
	C9.553049,115.343842 6.639651,123.770111 3.890913,132.230026
	C2.547912,136.363419 1.940408,140.735794 1.000000,145.000000
	C1.000000,97.042969 1.000000,49.085938 1.000000,1.064455
	C67.563965,1.064455 134.128006,1.064455 201.000000,1.064455
	C201.000000,49.020454 201.000000,97.041573 201.000000,145.531342
z"/>
<path fill="#FFC401" opacity="1.000000" stroke="none"
	d="
M1.000000,145.466125
	C1.940408,140.735794 2.547912,136.363419 3.890913,132.230026
	C6.639651,123.770111 9.553049,115.343842 12.932909,107.123383
	C13.737513,105.166443 16.441990,103.271713 18.620396,102.718910
	C30.054722,99.817307 41.576412,100.202232 53.431030,102.902267
	C53.823673,102.925316 54.124924,103.224358 54.126743,103.911377
	C54.125465,112.090714 53.401623,119.665657 54.249451,127.060417
	C57.230003,153.056808 66.368126,176.807175 82.523796,197.500900
	C87.250214,203.554932 93.344269,208.541260 98.811470,214.016968
	C98.841949,214.457062 98.872429,214.897156 98.652969,215.840012
	C96.037361,219.294678 93.732231,222.297623 91.294655,225.188904
	C84.033623,233.801437 74.652542,239.606293 64.567207,244.924835
	C31.696795,231.009109 11.353286,206.957230 3.687188,172.336060
	C2.777363,168.227158 1.895061,164.112167 1.000000,160.000000
	C1.000000,155.310745 1.000000,150.621490 1.000000,145.466125
z"/>
<path fill="#FF9100" opacity="1.000000" stroke="none"
	d="
M99.112267,213.827515
	C93.344269,208.541260 87.250214,203.554932 82.523796,197.500900
	C66.368126,176.807175 57.230003,153.056808 54.249451,127.060417
	C53.401623,119.665657 54.125465,112.090714 54.222237,104.100922
	C76.723068,109.264084 92.877640,122.826340 102.644066,143.482117
	C113.874496,167.234207 112.725082,190.815918 99.112267,213.827515
z"/>
<path fill="#FF9100" opacity="1.000000" stroke="none"
	d="
M141.174011,242.760803
	C126.018425,250.734070 109.551804,253.298569 92.639038,251.453186
	C83.494400,250.455383 74.566795,247.468552 65.233131,245.158554
	C74.652542,239.606293 84.033623,233.801437 91.294655,225.188904
	C93.732231,222.297623 96.037361,219.294678 98.687637,216.169128
	C111.639969,226.905258 125.679176,235.644745 141.174011,242.760803
z"/>
</svg>