<svg xmlns="http://www.w3.org/2000/svg" width="64" height="64" viewBox="0 0 64 64">
  <path fill="#FFA000" d="M3.4 56.4C1.2 54.2 0 51.2 0 48V16c0-3.2 1.2-6.2 3.4-8.4l26 28-26 20.8z"/>
  <path fill="#F57F17" d="M40.8 32L32 40.8 3.4 7.6C5.6 5.4 8.6 4 12 4h28c3.4 0 6.2 1.4 8.4 3.6l-7.6 24.4z"/>
  <path fill="#FFCA28" d="M32 40.8l-8.8 8.8c-2.2 2.2-5.2 3.4-8.4 3.4s-6.2-1.2-8.4-3.4L32 24l8 16.8z"/>
  <path fill="#FF6F00" d="M48 16l-7.2 24-8-8 7.2-24.4c.8-2.8 3.6-4.4 6.4-3.6 2.8.8 4.4 3.2 3.6 6z"/>
  <path fill="#E65100" d="M32 24L3.4 56.4C5.6 58.6 8.6 60 12 60h28c3.4 0 6.2-1.4 8.4-3.6L32 24z"/>
</svg>
