<svg version="1.1" id="Layer_1" xmlns="http://www.w3.org/2000/svg" xmlns:xlink="http://www.w3.org/1999/xlink" x="0px" y="0px"
	 width="100%" viewBox="0 0 225 225" enable-background="new 0 0 225 225" xml:space="preserve">
<path fill="#FFFFFF" opacity="1.000000" stroke="none"
	d="
M155.000000,226.000000
	C103.333336,226.000000 52.166672,226.000000 1.000007,226.000000
	C1.000005,151.000000 1.000005,76.000015 1.000002,1.000017
	C75.999992,1.000011 150.999985,1.000011 225.999969,1.000006
	C225.999985,75.999985 225.999985,150.999969 226.000000,225.999969
	C202.500000,226.000000 179.000000,226.000000 155.000000,226.000000
z"/>
<path fill="#1A77D2" opacity="1.000000" stroke="none"
	d="
M114.062119,178.822647
	C114.062119,178.822647 113.691277,178.938004 113.451401,178.674988
	C113.211533,178.411987 113.095848,177.997604 113.145752,177.531067
	C113.161758,168.046204 113.127861,159.027878 113.150192,149.787170
	C113.206421,149.564789 113.289131,149.113388 113.479164,149.054993
	C113.669197,148.996597 114.050499,149.109268 114.353378,149.387756
	C126.210556,149.759308 137.764801,149.865524 149.319275,149.905334
	C149.876236,149.907242 150.435196,149.324646 151.324448,148.920639
	C152.106064,148.888977 152.556473,148.950912 153.210083,149.273621
	C154.245697,149.204590 155.078094,148.874756 156.203705,148.366364
	C166.550674,145.324783 172.486389,138.171738 171.822372,128.376129
	C171.557388,124.467102 169.910812,120.319260 167.823151,116.941452
	C164.389999,111.386612 158.333511,109.644302 152.258270,108.753593
	C150.869431,90.987785 149.445358,87.693016 138.234039,75.178940
	C145.415878,68.058685 152.303955,61.131413 159.192047,54.204140
	C168.532974,61.928947 174.634415,71.823364 178.854843,83.068840
	C179.675217,85.254768 181.084030,87.564552 182.879440,88.986191
	C199.682648,102.291496 206.403961,123.250206 200.239578,143.858429
	C194.420532,163.312119 176.582321,177.412277 155.225616,178.720642
	C154.117661,178.595032 153.574799,178.741623 153.031937,178.888214
	C140.654144,178.942642 128.276352,178.997070 115.359497,178.817856
	C114.567673,178.663712 114.314896,178.743179 114.062119,178.822647
z"/>
<path fill="#FEC109" opacity="1.000000" stroke="none"
	d="
M44.886139,168.944214
	C16.979553,149.344543 17.829632,108.248070 47.141994,86.933044
	C59.130722,78.826546 71.914284,78.109550 85.330276,79.560974
	C97.227928,82.976814 107.205276,88.643059 114.208939,98.315872
	C106.715851,105.787498 99.581390,112.901512 92.408852,120.053490
	C91.860367,119.255394 91.189110,118.136986 90.381912,117.127258
	C85.407570,110.904778 79.009361,108.018730 71.077225,109.533623
	C62.979008,111.080246 57.822807,116.158813 55.538113,123.973007
	C53.013428,132.608032 56.485020,139.912994 65.984985,147.351578
	C58.847092,154.747803 51.866615,161.846008 44.886139,168.944214
z"/>
<path fill="#FE3E02" opacity="1.000000" stroke="none"
	d="
M85.073586,79.331772
	C71.914284,78.109550 59.130722,78.826546 47.419647,86.727402
	C55.659191,59.433315 74.158569,42.994007 102.279976,37.649437
	C107.149849,36.723896 112.402863,38.048180 117.440903,37.730553
	C133.755859,36.701965 146.801758,43.827240 159.005951,53.974312
	C152.303955,61.131413 145.415878,68.058685 137.901764,75.046890
	C119.565811,62.765350 101.132240,64.256912 85.073586,79.331772
z"/>
<path fill="#4CB050" opacity="1.000000" stroke="none"
	d="
M45.077076,169.238098
	C51.866615,161.846008 58.847092,154.747803 66.367569,147.370285
	C70.318214,147.651596 73.719353,148.618866 77.141228,148.698776
	C88.757248,148.970093 100.380608,148.927734 112.119461,149.233612
	C112.523155,149.644547 112.808556,149.827042 113.093964,150.009537
	C113.127861,159.027878 113.161758,168.046204 112.917870,177.614594
	C112.343246,178.327438 112.138290,178.568390 112.025215,178.887482
	C98.225174,178.923660 84.415253,179.291367 70.628540,178.880432
	C61.310566,178.602692 52.854214,175.007355 45.077076,169.238098
z"/>
</svg>