<svg xmlns="http://www.w3.org/2000/svg" width="64" height="64" viewBox="0 0 64 64">
  <path fill="#4285F4" d="M54.8 36.6c.3 0 .5.2.6.5l2 8c.1.3 0 .5-.2.7l-4 2.3c-.2.1-.5 0-.6-.2l-2-4.5c-.1-.3.1-.6.3-.7l3.5-5.7c.1-.2.2-.4.4-.4z"/>
  <path fill="#34A853" d="M8.2 36.6c-.3 0-.5.2-.6.5l-2 8c-.1.3 0 .5.2.7l4 2.3c.2.1.5 0 .6-.2l2-4.5c.1-.3-.1-.6-.3-.7l-3.5-5.7c-.1-.2-.2-.4-.4-.4z"/>
  <path fill="#FBBC05" d="M32 32l8.4-8.4c.1-.1.3-.2.5-.2h8c.2 0 .3.1.4.3l4.4 10c.2.4-.3.8-.6.5L32 32z"/>
  <path fill="#EA4335" d="M32 32l-8.4 8.4c-.1.1-.3.2-.5.2h-8c-.2 0-.3-.1-.4-.3L10.3 30c-.2-.4.3-.8.6-.5L32 32z"/>
  <path fill="#4285F4" d="M56.6 27.4c-.2-.1-.4-.1-.6 0l-14 8.2-8.4-8.4c-.1-.1-.3-.2-.5-.2h-8c-.2 0-.3-.1-.4-.3l-4.4-10c-.2-.4-.7-.4-.9 0l-4.4 10c-.1.2-.2.3-.4.3h-7.1c-.3 0-.5.2-.6.5l-2 8c-.1.3 0 .5.2.7.1.1.3.1.4 0l4-2.3c.2-.1.5 0 .6.2l2 4.5c.1.3.5.4.7.2l14.4-8.4 8.4 8.4c.1.1.3.2.5.2h8c.2 0 .3.1.4.3l4.4 10c.2.4.7.4.9 0l4.4-10c.1-.2.2-.3.4-.3h7.1c.3 0 .5-.2.6-.5l2-8c.1-.3 0-.5-.2-.7l-4-2.3c-.2-.1-.3-.3-.2-.5l2-4.5c.1-.3-.1-.6-.3-.7z"/>
</svg>
