<svg version="1.1" id="Layer_1" xmlns="http://www.w3.org/2000/svg" xmlns:xlink="http://www.w3.org/1999/xlink" x="0px" y="0px"
	 width="100%" viewBox="0 0 225 225" enable-background="new 0 0 225 225" xml:space="preserve">
<path fill="#FEFEFE" opacity="1.000000" stroke="none"
	d="
M105.000000,226.000000
	C70.406746,226.000000 35.813488,226.000000 1.000000,226.000000
	C1.000000,191.979416 1.000000,157.958374 1.461724,123.557007
	C19.200596,123.189545 36.478703,123.108810 53.754162,123.286285
	C57.679802,123.326622 59.197357,122.042702 58.883224,118.117416
	C58.632229,114.981079 58.586502,111.784508 58.892426,108.657997
	C59.316998,104.318893 57.778362,102.873421 53.329090,102.929192
	C35.888500,103.147789 18.443415,103.007172 1.000000,103.000000
	C1.000000,69.072701 1.000000,35.145405 1.000000,1.000000
	C35.020584,1.000000 69.041634,1.000000 103.544495,1.413006
	C103.868340,18.952230 103.646278,36.078671 103.704926,53.204144
	C103.708611,54.279663 105.815498,56.121788 107.099739,56.271633
	C110.714439,56.693398 114.428627,56.188473 118.069855,56.476051
	C122.400246,56.818050 123.914970,55.275169 123.846306,50.826477
	C123.615013,35.840874 123.781372,20.849398 123.725044,5.860432
	C123.718948,4.239402 123.252769,2.620102 123.000000,1.000000
	C157.259918,1.000000 191.519821,1.000000 226.000000,1.000000
	C226.000000,34.687241 226.000000,68.374962 225.531403,102.539536
	C207.788544,103.017822 190.513428,103.112045 173.240692,102.950066
	C169.324203,102.913345 167.819138,104.175049 168.109482,108.115334
	C168.377274,111.749825 168.269440,115.423180 168.136551,119.072479
	C168.029007,122.025887 169.174820,123.268616 172.201447,123.245338
	C190.133865,123.107422 208.067062,123.070732 226.000000,123.000000
	C226.000000,157.260986 226.000000,191.521957 226.000000,226.000000
	C191.312744,226.000000 156.625031,226.000000 121.632935,225.657516
	C122.138405,223.888336 123.636955,222.469040 123.652390,221.033798
	C123.820755,205.380951 123.720413,189.725433 123.789215,174.071060
	C123.802132,171.133286 122.765221,169.785095 119.705063,169.901764
	C115.880249,170.047577 112.033226,170.127533 108.218666,169.881363
	C104.351227,169.631775 103.431854,171.370422 103.464760,174.919159
	C103.605293,190.072922 103.473206,205.229126 103.589249,220.383286
	C103.603607,222.259018 104.508026,224.127930 105.000000,226.000000
z"/>
<path fill="#0BBFBB" opacity="1.000000" stroke="none"
	d="
M122.531738,1.000000
	C123.252769,2.620102 123.718948,4.239402 123.725044,5.860432
	C123.781372,20.849398 123.615013,35.840874 123.846306,50.826477
	C123.914970,55.275169 122.400246,56.818050 118.069855,56.476051
	C114.428627,56.188473 110.714439,56.693398 107.099739,56.271633
	C105.815498,56.121788 103.708611,54.279663 103.704926,53.204144
	C103.646278,36.078671 103.868340,18.952230 104.013153,1.413006
	C110.021156,1.000000 116.042305,1.000000 122.531738,1.000000
z"/>
<path fill="#0BBFBB" opacity="1.000000" stroke="none"
	d="
M105.466858,226.000000
	C104.508026,224.127930 103.603607,222.259018 103.589249,220.383286
	C103.473206,205.229126 103.605293,190.072922 103.464760,174.919159
	C103.431854,171.370422 104.351227,169.631775 108.218666,169.881363
	C112.033226,170.127533 115.880249,170.047577 119.705063,169.901764
	C122.765221,169.785095 123.802132,171.133286 123.789215,174.071060
	C123.720413,189.725433 123.820755,205.380951 123.652390,221.033798
	C123.636955,222.469040 122.138405,223.888336 121.164276,225.657516
	C115.977905,226.000000 110.955818,226.000000 105.466858,226.000000
z"/>
<path fill="#09BEBB" opacity="1.000000" stroke="none"
	d="
M1.000000,103.468399
	C18.443415,103.007172 35.888500,103.147789 53.329090,102.929192
	C57.778362,102.873421 59.316998,104.318893 58.892426,108.657997
	C58.586502,111.784508 58.632229,114.981079 58.883224,118.117416
	C59.197357,122.042702 57.679802,123.326622 53.754162,123.286285
	C36.478703,123.108810 19.200596,123.189545 1.461724,123.088348
	C1.000000,116.645599 1.000000,110.291206 1.000000,103.468399
z"/>
<path fill="#0ABFBB" opacity="1.000000" stroke="none"
	d="
M226.000000,122.531601
	C208.067062,123.070732 190.133865,123.107422 172.201447,123.245338
	C169.174820,123.268616 168.029007,122.025887 168.136551,119.072479
	C168.269440,115.423180 168.377274,111.749825 168.109482,108.115334
	C167.819138,104.175049 169.324203,102.913345 173.240692,102.950066
	C190.513428,103.112045 207.788544,103.017822 225.531403,103.008194
	C226.000000,109.354401 226.000000,115.708794 226.000000,122.531601
z"/>
<path fill="#074C4A" opacity="1.000000" stroke="none"
	d="
M126.248825,99.997818
	C126.248825,99.997818 125.946381,99.654594 125.949478,99.093346
	C125.343117,97.999596 124.733658,97.467102 124.124207,96.934601
	C124.124207,96.934601 124.040298,96.956505 124.003006,96.584671
	C123.240875,95.843781 122.516045,95.474724 121.791214,95.105667
	C120.413116,94.789032 119.035011,94.472389 117.033386,93.744095
	C112.276970,93.528305 108.144066,93.724174 104.011169,93.920052
	C100.335121,93.785385 99.417221,95.575096 99.465210,99.135201
	C99.669411,114.281143 99.459351,129.432388 99.618004,144.579422
	C99.656425,148.247787 98.520889,149.465317 94.777588,149.491516
	C79.387932,149.599167 79.367943,149.712402 79.394135,134.184799
	C79.425293,115.709892 79.496773,97.235069 80.305901,78.369736
	C92.805046,77.987709 104.549271,78.030556 116.292870,77.963425
	C117.856995,77.954475 119.417915,77.387733 120.980324,77.079300
	C121.147682,77.022514 121.315041,76.965736 122.022980,77.223129
	C123.560745,77.560539 124.557930,77.583778 125.555115,77.607010
	C133.113815,78.728348 138.656723,82.933624 143.090424,89.606506
	C143.467606,90.477867 143.738098,90.741837 144.008575,91.005814
	C144.707443,92.429520 145.406326,93.853226 145.881744,95.791527
	C146.096848,97.202507 146.535416,98.098892 146.973969,98.995277
	C147.173691,114.661896 147.373398,130.328522 147.156067,146.587067
	C146.139221,147.860641 145.539383,148.542267 144.939545,149.223892
	C140.951645,149.277237 136.963745,149.330582 132.302032,149.022491
	C130.298691,148.077087 128.969162,147.493103 127.639633,146.909134
	C127.532845,132.850418 127.426056,118.791710 127.546097,104.113449
	C127.264900,102.328529 126.756866,101.163170 126.248825,99.997818
z"/>
<path fill="#0BBFBB" opacity="1.000000" stroke="none"
	d="
M73.436333,163.088852
	C74.193649,168.054062 72.473915,171.381958 69.023102,174.391739
	C64.767708,178.103271 60.918133,182.288757 56.987244,186.360245
	C54.806129,188.619400 52.897621,188.729462 50.665829,186.410248
	C37.306255,172.527328 37.592812,177.471695 49.939518,164.573746
	C51.090469,163.371414 52.562950,162.383362 53.415337,161.004730
	C57.364887,154.616837 63.549557,154.951721 69.748642,155.401108
	C74.823174,155.768982 73.035492,159.810135 73.436333,163.088852
z"/>
<path fill="#0BBFBB" opacity="1.000000" stroke="none"
	d="
M69.588493,70.768570
	C61.750687,72.044540 56.083336,69.437843 51.501114,63.548061
	C49.075596,60.430412 46.034237,57.762455 43.099461,55.078979
	C40.338181,52.554138 40.120205,50.514370 42.908234,47.646317
	C53.557545,36.691322 53.478600,36.614159 64.175179,47.318783
	C65.464516,48.609085 66.571602,50.179001 68.068443,51.147499
	C74.421486,55.258110 73.530388,61.564724 73.064888,67.614975
	C72.978828,68.733589 71.093513,69.713783 69.588493,70.768570
z"/>
</svg>