<svg xmlns="http://www.w3.org/2000/svg" width="64" height="64" viewBox="0 0 64 64">
  <path fill="#3ECF8E" d="M32 4C16.536 4 4 16.536 4 32s12.536 28 28 28c10.168 0 19.056-5.536 23.768-13.744a2 2 0 00-1.736-3.008H50.4c-1.28 0-2.496-.6-3.28-1.608C44.936 38.44 38.8 35.2 32 35.2c-8.024 0-14.68 5.648-16.32 13.2C15.288 40.544 14.8 32.528 14.8 32s.488-8.544.88-16.4C17.32 8.032 23.976 2.384 32 2.384c6.8 0 12.936 3.24 15.12 6.44.784 1.008 2 1.608 3.28 1.608h3.632a2 2 0 001.736-3.008C51.056-1.008 42.168-4 32-4z"/>
  <circle fill="#1C1C1C" cx="32" cy="42" r="8"/>
  <path fill="#3ECF8E" d="M24 42a8 8 0 0116 0" opacity=".3"/>
</svg>
