<svg version="1.1" id="Layer_1" xmlns="http://www.w3.org/2000/svg" xmlns:xlink="http://www.w3.org/1999/xlink" x="0px" y="0px"
	 width="100%" viewBox="0 0 225 225" enable-background="new 0 0 225 225" xml:space="preserve">
<path fill="#FEFFFE" opacity="1.000000" stroke="none" 
	d="
M1.000000,129.000000 
	C1.000000,128.250000 1.000000,127.500000 1.384621,126.374962 
	C2.793602,126.002121 3.817961,126.004318 4.917182,126.374542 
	C5.771301,130.372559 5.507943,133.953812 8.367857,137.366287 
	C14.038952,144.133102 21.134100,145.676498 29.242849,145.655975 
	C55.163807,145.590332 81.085022,145.625610 107.006134,145.622009 
	C108.939827,145.621735 110.873520,145.621979 112.681831,145.621979 
	C113.140808,147.922729 113.462334,149.534454 113.741104,151.438644 
	C113.738182,152.118561 113.778015,152.506012 113.677551,153.193695 
	C113.643471,155.014236 113.749695,156.534576 113.809784,158.378769 
	C113.826271,159.131073 113.888885,159.559525 113.929962,159.946777 
	C113.908417,159.905594 113.817978,159.927032 113.707855,160.055847 
	C113.684311,160.490158 113.770889,160.795670 113.820297,161.464279 
	C113.841026,162.551895 113.898926,163.276382 113.875275,164.412903 
	C113.864594,166.216675 113.935471,167.608444 113.950058,169.436523 
	C113.957832,171.920929 114.021881,173.968994 114.031723,176.258087 
	C113.977509,176.499100 114.113365,176.974152 114.042114,177.348175 
	C114.015457,178.479568 114.060043,179.236969 114.030762,180.458313 
	C114.097427,192.044113 114.169968,203.167358 114.404503,214.287201 
	C114.540977,220.757767 117.347176,223.669418 124.348221,224.783051 
	C132.810654,223.355972 135.362778,216.014969 139.716324,210.553467 
	C139.706711,210.530151 139.737030,210.491455 139.974457,210.412567 
	C140.483917,209.908661 140.755936,209.483643 141.324844,208.900742 
	C147.458206,201.241333 153.294662,193.739807 159.425812,186.053619 
	C165.156708,178.931610 170.592911,171.994278 176.313965,164.879669 
	C181.148087,158.841263 185.697372,152.980133 190.530304,146.940231 
	C192.939102,143.724579 194.893066,140.548904 197.221695,137.677017 
	C204.045288,129.261566 211.242874,121.140907 217.865967,112.573891 
	C223.900482,104.768204 223.383377,95.211372 216.833221,87.964417 
	C215.468369,86.454369 212.975403,85.963951 210.643402,84.892868 
	C208.506332,83.977882 206.728165,83.173660 204.669022,82.065277 
	C203.581070,81.635201 202.774429,81.401497 201.967102,81.399124 
	C181.435303,81.338730 160.903442,81.292603 140.371582,81.289749 
	C139.273224,81.289597 138.174820,81.689545 136.723328,81.773239 
	C135.886108,81.738754 135.401978,81.834259 134.604919,81.674591 
	C127.365158,81.419411 120.438347,81.419411 113.265701,81.419411 
	C113.156097,79.270248 113.022964,77.810394 113.016319,76.349960 
	C112.955803,63.053394 113.050919,49.754494 112.828102,36.460842 
	C112.664116,26.677599 112.092766,16.901184 112.029892,6.884420 
	C112.571228,4.764742 112.785614,2.882371 113.000000,1.000000 
	C150.641449,1.000000 188.282898,1.000000 225.962173,1.000000 
	C225.962173,75.924553 225.962173,150.849136 225.962173,225.886856 
	C151.000092,225.886856 76.000069,225.886856 1.000028,225.882050 
	C1.000000,195.897278 1.000000,165.917297 1.267566,135.244431 
	C1.155532,132.720428 4.742437,130.506958 1.000000,129.000000 
z"/>
<path fill="#FEFFFE" opacity="1.000000" stroke="none" 
	d="
M112.531342,1.000000 
	C112.785614,2.882371 112.571228,4.764742 111.696640,6.788857 
	C110.471565,6.586044 109.852631,6.306300 109.349998,5.887117 
	C102.815590,0.437600 99.419426,0.705028 93.991653,7.452672 
	C84.053833,19.807058 74.211533,32.238319 64.337547,44.643997 
	C57.604645,53.103222 50.915817,61.597694 44.153572,70.033348 
	C32.612488,84.430435 21.029209,98.793709 9.069228,113.146042 
	C7.395023,113.823479 5.188612,114.354614 5.020564,115.262886 
	C4.620886,117.423058 -0.158690,119.980392 5.151708,122.369286 
	C5.093987,123.132057 4.998726,123.563797 4.513096,123.997208 
	C3.081817,123.999245 2.040909,123.999626 1.000000,124.000000 
	C1.000000,83.076462 1.000000,42.152924 1.000000,1.000000 
	C38.020580,1.000000 75.041634,1.000000 112.531342,1.000000 
z"/>
<path fill="#40CE91" opacity="1.000000" stroke="none" 
	d="
M4.917182,126.374542 
	C4.900418,125.559517 4.958516,125.112518 4.960040,124.330536 
	C4.998726,123.563797 5.093987,123.132057 5.367859,122.099289 
	C6.852200,118.722565 8.157928,115.946877 9.463655,113.171181 
	C21.029209,98.793709 32.612488,84.430435 44.153572,70.033348 
	C50.915817,61.597694 57.604645,53.103222 64.337547,44.643997 
	C74.211533,32.238319 84.053833,19.807058 93.991653,7.452672 
	C99.419426,0.705028 102.815590,0.437600 109.349998,5.887117 
	C109.852631,6.306300 110.471565,6.586044 111.369690,7.026165 
	C112.092766,16.901184 112.664116,26.677599 112.828102,36.460842 
	C113.050919,49.754494 112.955803,63.053394 113.016319,76.349960 
	C113.022964,77.810394 113.156097,79.270248 113.265701,81.419411 
	C120.438347,81.419411 127.365158,81.419411 134.426315,82.006348 
	C133.032730,82.797684 131.504791,83.002083 129.513611,83.152283 
	C124.955055,83.080101 120.851524,82.911133 116.769424,83.134232 
	C115.510857,83.203026 114.310768,84.341431 113.049728,85.458221 
	C113.077606,95.939919 113.139648,105.953468 113.147537,116.419678 
	C113.118492,119.904373 113.143600,122.936424 113.123047,126.436447 
	C113.411423,132.959549 113.745453,139.014679 114.069626,145.506561 
	C113.967804,147.677612 113.875824,149.411896 113.783859,151.146179 
	C113.462334,149.534454 113.140808,147.922729 112.681831,145.621979 
	C110.873520,145.621979 108.939827,145.621735 107.006134,145.622009 
	C81.085022,145.625610 55.163807,145.590332 29.242849,145.655975 
	C21.134100,145.676498 14.038952,144.133102 8.367857,137.366287 
	C5.507943,133.953812 5.771301,130.372559 4.917182,126.374542 
z"/>
<path fill="#30AB75" opacity="1.000000" stroke="none" 
	d="
M123.985809,224.698090 
	C117.347176,223.669418 114.540977,220.757767 114.404503,214.287201 
	C114.169968,203.167358 114.097427,192.044113 114.405273,180.412354 
	C119.579498,178.733948 117.560921,174.877762 118.303665,172.126587 
	C119.673317,171.635406 121.307625,171.271515 121.713142,170.360611 
	C123.632774,166.048584 125.043663,161.510620 126.952530,157.193176 
	C132.885223,143.774765 138.806854,130.346832 145.069168,117.081406 
	C147.151825,112.669716 150.224548,108.720726 152.892593,104.591187 
	C156.905640,98.379913 160.960876,92.195908 165.295563,85.978745 
	C166.058960,85.637672 166.524963,85.318161 167.294617,84.964798 
	C168.057114,84.363396 168.515976,83.795845 169.383163,83.177917 
	C172.201797,83.110352 174.612106,83.093155 177.014069,83.395432 
	C177.003540,84.142876 177.001358,84.570824 176.998764,85.332169 
	C176.997879,86.110069 176.997421,86.554573 176.658051,86.851692 
	C174.836624,87.079971 172.734009,86.958908 171.971237,87.911125 
	C166.626511,94.583366 161.092789,101.183044 156.540680,108.387932 
	C152.480865,114.813667 149.601044,121.985359 146.215836,128.835449 
	C146.074753,129.120941 146.140976,129.503250 146.023972,129.807083 
	C143.993195,135.079834 141.990952,140.364151 139.896790,145.611740 
	C137.313751,152.084442 134.582916,158.498734 132.046890,164.989426 
	C130.198105,169.721176 129.320297,175.013031 126.676888,179.217209 
	C120.568710,188.931900 117.869186,199.620697 116.210426,210.664749 
	C115.864197,212.969940 117.352180,215.550598 118.190140,218.261993 
	C119.589485,219.014557 120.793571,219.509415 122.243576,220.005554 
	C122.489502,220.006851 122.981339,220.010361 122.983986,220.259491 
	C122.986633,220.508606 122.998901,221.006729 123.105865,221.223877 
	C123.409470,221.712036 123.667114,221.898987 123.987030,222.338928 
	C123.987465,223.350021 123.986633,224.024048 123.985809,224.698090 
z"/>
<path fill="#35B97F" opacity="1.000000" stroke="none" 
	d="
M122.998901,221.006729 
	C122.998901,221.006729 122.986633,220.508606 123.268585,220.058060 
	C126.961487,217.908646 126.700539,214.794250 127.683121,211.619064 
	C130.169373,203.584808 134.534058,196.136353 138.074814,188.420425 
	C138.866959,186.694183 139.294128,184.803894 140.019012,183.042511 
	C140.847595,181.029221 141.786774,179.058823 142.742783,177.101501 
	C143.445435,175.662918 144.449829,174.345078 144.977341,172.852417 
	C146.794449,167.710602 148.248383,162.432053 150.239944,157.362427 
	C152.654388,151.216324 155.391434,145.191483 158.144699,139.185593 
	C160.498856,134.050308 163.078644,129.018631 165.548386,123.936150 
	C168.318497,118.235542 172.708206,112.704460 173.345016,106.772392 
	C173.893509,101.662910 176.329437,98.970390 178.818100,95.437233 
	C180.493973,93.058006 180.981476,89.841721 181.999634,86.749321 
	C181.997665,86.331673 181.996689,86.164619 182.014771,85.707512 
	C182.326004,84.947945 182.618225,84.478424 183.294891,83.875061 
	C186.442398,83.516777 189.205429,83.292328 191.979675,83.388939 
	C191.994339,84.140099 191.997787,84.570198 192.000916,85.250305 
	C192.000809,85.666969 192.001022,85.833641 191.703491,86.021088 
	C190.937164,86.360939 190.468582,86.680008 189.623352,87.004913 
	C187.895233,88.253685 186.338165,89.342155 185.253693,90.785675 
	C184.290085,92.068306 184.169037,94.026955 183.127975,95.201317 
	C176.637848,102.522507 176.412827,112.509766 172.067551,120.752823 
	C169.442825,125.731995 167.629608,131.135498 165.376541,136.315643 
	C164.384781,138.595795 163.122177,140.758057 162.128082,143.037323 
	C159.430969,149.221252 156.645126,155.374420 154.202560,161.659500 
	C150.945755,170.039764 148.154984,178.603027 144.821625,186.950958 
	C142.896088,191.773193 140.296722,196.326355 137.752182,201.200439 
	C138.244461,204.459106 138.985199,207.517929 139.725937,210.576767 
	C135.362778,216.014969 132.810654,223.355972 124.348221,224.783051 
	C123.986633,224.024048 123.987465,223.350021 124.252823,222.313095 
	C124.727173,221.764175 124.936981,221.578140 125.146790,221.392090 
	C124.430824,221.263626 123.714867,221.135178 122.998901,221.006729 
z"/>
<path fill="#40CE90" opacity="1.000000" stroke="none" 
	d="
M211.002319,85.003647 
	C212.975403,85.963951 215.468369,86.454369 216.833221,87.964417 
	C223.383377,95.211372 223.900482,104.768204 217.865967,112.573891 
	C211.242874,121.140907 204.045288,129.261566 197.221695,137.677017 
	C194.893066,140.548904 192.939102,143.724579 190.198654,146.780014 
	C186.086456,143.404388 189.913925,141.198273 190.986160,138.608765 
	C192.393372,135.210266 196.061737,132.568268 194.148102,128.084854 
	C193.848938,127.383949 194.462814,126.155205 194.903381,125.298523 
	C198.488220,118.327728 202.729752,111.679306 204.297134,103.782074 
	C204.694321,101.780777 205.900101,99.521736 207.448563,98.252487 
	C210.885406,95.435371 211.358017,91.946190 211.195847,87.822876 
	C211.261093,86.764435 211.131699,85.884041 211.002319,85.003647 
z"/>
<path fill="#38C085" opacity="1.000000" stroke="none" 
	d="
M139.716324,210.553467 
	C138.985199,207.517929 138.244461,204.459106 138.139923,201.199493 
	C143.435089,200.069504 144.150101,195.881210 145.658966,192.463516 
	C147.961487,187.248138 149.990738,181.912659 152.234177,176.670166 
	C152.608093,175.796417 153.626923,175.214966 154.088333,174.358658 
	C154.838425,172.966675 155.374329,171.459259 156.356339,169.936218 
	C158.474701,165.581253 160.237350,161.290619 162.000061,156.666779 
	C162.000290,155.889236 162.000443,155.444916 162.355118,154.961365 
	C168.088455,151.229843 168.325256,145.714554 168.000000,139.750000 
	C168.000000,139.500000 168.000000,139.000000 168.357925,138.958984 
	C171.477036,133.945221 174.238220,128.972458 176.999588,123.666473 
	C176.999847,122.888924 176.999924,122.444618 177.004944,121.626480 
	C178.006607,118.501869 179.003311,115.751091 180.279221,112.797539 
	C184.001602,104.615891 187.462509,96.644478 190.830521,88.634003 
	C190.983475,88.270210 190.297821,87.553833 190.001373,87.000839 
	C190.000000,87.000000 190.000000,86.999084 190.000000,86.999084 
	C190.468582,86.680008 190.937164,86.360939 191.702881,86.020935 
	C192.000000,86.000000 192.001221,85.999695 192.108902,86.219543 
	C192.416504,86.713066 192.678055,86.900948 193.040985,87.371902 
	C193.211777,89.165207 193.821869,90.760078 193.386810,91.983170 
	C191.897690,96.169502 190.118286,100.259399 188.310410,104.324165 
	C183.735703,114.609695 178.939377,124.799469 174.533356,135.155899 
	C172.630157,139.629364 171.776382,144.547607 169.893463,149.031830 
	C167.722595,154.201874 164.827332,159.063721 162.500427,164.174927 
	C161.865326,165.569992 162.142242,167.380280 162.000473,169.407059 
	C160.777374,173.316132 159.852722,176.964157 158.233612,180.272278 
	C157.018692,182.754562 157.010391,184.516129 159.131134,186.238297 
	C153.294662,193.739807 147.458206,201.241333 141.126648,208.652008 
	C140.333389,209.204590 140.035217,209.848022 139.737030,210.491455 
	C139.737030,210.491455 139.706711,210.530151 139.716324,210.553467 
z"/>
<path fill="#2BA36E" opacity="1.000000" stroke="none" 
	d="
M113.956825,164.000885 
	C113.898926,163.276382 113.841026,162.551895 113.862907,161.169586 
	C113.901115,160.316864 113.859550,160.121948 113.817978,159.927032 
	C113.817978,159.927032 113.908417,159.905594 114.220787,159.709869 
	C114.690697,158.009949 114.848236,156.505783 115.366013,154.994232 
	C119.075531,152.567657 117.428787,150.737625 115.017853,148.665512 
	C115.018753,147.890915 115.021713,147.448303 115.404419,146.992676 
	C118.183685,143.597641 120.647530,140.258575 122.949875,136.811646 
	C123.824272,135.502548 124.226768,133.887451 125.019089,132.512497 
	C126.955650,129.151855 128.919937,125.802574 131.006531,122.533920 
	C135.858887,114.932678 140.841171,107.414162 145.669876,99.798141 
	C148.545807,95.262123 151.230545,90.604881 154.417740,86.001434 
	C156.222839,86.000687 157.611420,86.000648 158.957626,86.376625 
	C157.808075,89.466537 157.350159,92.783203 155.484421,94.792839 
	C146.032700,104.973473 139.251938,116.782394 133.379028,129.211380 
	C131.744354,132.670883 130.722290,136.604965 128.388138,139.486008 
	C126.735558,141.525787 125.572624,142.819794 126.592918,145.418320 
	C126.889259,146.173065 126.553383,147.338028 126.179977,148.167603 
	C123.671387,153.740845 121.074524,159.274353 118.445465,164.952072 
	C117.646240,164.782700 115.801529,164.391800 113.956825,164.000885 
z"/>
<path fill="#2DA670" opacity="1.000000" stroke="none" 
	d="
M113.875275,164.412903 
	C115.801529,164.391800 117.646240,164.782700 118.445465,164.952072 
	C121.074524,159.274353 123.671387,153.740845 126.179977,148.167603 
	C126.553383,147.338028 126.889259,146.173065 126.592918,145.418320 
	C125.572624,142.819794 126.735558,141.525787 128.388138,139.486008 
	C130.722290,136.604965 131.744354,132.670883 133.379028,129.211380 
	C139.251938,116.782394 146.032700,104.973473 155.484421,94.792839 
	C157.350159,92.783203 157.808075,89.466537 159.386002,86.375900 
	C161.570557,85.999542 163.284363,85.999924 164.998169,86.000305 
	C160.960876,92.195908 156.905640,98.379913 152.892593,104.591187 
	C150.224548,108.720726 147.151825,112.669716 145.069168,117.081406 
	C138.806854,130.346832 132.885223,143.774765 126.952530,157.193176 
	C125.043663,161.510620 123.632774,166.048584 121.713142,170.360611 
	C121.307625,171.271515 119.673317,171.635406 118.292786,171.743530 
	C116.655701,170.490540 115.331024,169.745377 114.006340,169.000198 
	C113.935471,167.608444 113.864594,166.216675 113.875275,164.412903 
z"/>
<path fill="#3BC589" opacity="1.000000" stroke="none" 
	d="
M159.425812,186.053619 
	C157.010391,184.516129 157.018692,182.754562 158.233612,180.272278 
	C159.852722,176.964157 160.777374,173.316132 162.306107,169.251648 
	C164.125427,166.313293 165.638977,163.937408 167.152527,161.561523 
	C167.557663,162.066971 167.962784,162.572418 168.367920,163.077850 
	C168.577194,161.222931 168.441681,159.243011 169.060303,157.536469 
	C170.927429,152.385635 173.100571,147.346191 175.128677,142.253098 
	C176.351257,139.182846 176.652588,134.574738 178.882874,133.292206 
	C186.119797,129.130600 182.894745,120.611771 187.646149,115.271606 
	C191.015442,111.484818 192.365646,105.557747 193.631912,100.346626 
	C194.750916,95.741432 200.667130,92.741707 198.249008,86.999748 
	C198.498627,86.999191 198.997864,86.998108 199.331451,86.998665 
	C200.109818,86.999748 200.554611,87.000267 200.999512,87.438736 
	C202.393539,95.796059 195.754517,101.046783 194.278214,108.113655 
	C192.673218,115.796448 187.022293,121.769836 185.070404,129.791214 
	C182.806168,139.096191 177.237411,147.603653 173.036026,156.425385 
	C172.142380,158.301773 170.753204,160.083191 174.028763,161.329956 
	C174.715118,162.792252 175.372116,163.924606 176.029114,165.056946 
	C170.592911,171.994278 165.156708,178.931610 159.425812,186.053619 
z"/>
<path fill="#3DCA8D" opacity="1.000000" stroke="none" 
	d="
M176.313965,164.879669 
	C175.372116,163.924606 174.715118,162.792252 174.072144,160.967346 
	C176.685150,155.452408 180.039322,150.876633 181.712708,145.752029 
	C184.479126,137.280197 191.758820,130.662781 191.628784,121.032524 
	C191.614151,119.948616 193.082291,118.892845 193.716095,117.743141 
	C195.740219,114.071404 199.096222,110.460762 199.366440,106.644447 
	C199.835754,100.016258 202.291855,94.771431 206.451248,90.089226 
	C207.465851,88.947113 209.458344,88.673729 211.001221,88.000916 
	C211.358017,91.946190 210.885406,95.435371 207.448563,98.252487 
	C205.900101,99.521736 204.694321,101.780777 204.297134,103.782074 
	C202.729752,111.679306 198.488220,118.327728 194.903381,125.298523 
	C194.462814,126.155205 193.848938,127.383949 194.148102,128.084854 
	C196.061737,132.568268 192.393372,135.210266 190.986160,138.608765 
	C189.913925,141.198273 186.086456,143.404388 189.915009,146.958801 
	C185.697372,152.980133 181.148087,158.841263 176.313965,164.879669 
z"/>
<path fill="#3BC78A" opacity="1.000000" stroke="none" 
	d="
M211.195847,87.822876 
	C209.458344,88.673729 207.465851,88.947113 206.451248,90.089226 
	C202.291855,94.771431 199.835754,100.016258 199.366440,106.644447 
	C199.096222,110.460762 195.740219,114.071404 193.716095,117.743141 
	C193.082291,118.892845 191.614151,119.948616 191.628784,121.032524 
	C191.758820,130.662781 184.479126,137.280197 181.712708,145.752029 
	C180.039322,150.876633 176.685150,155.452408 174.042770,160.637390 
	C170.753204,160.083191 172.142380,158.301773 173.036026,156.425385 
	C177.237411,147.603653 182.806168,139.096191 185.070404,129.791214 
	C187.022293,121.769836 192.673218,115.796448 194.278214,108.113655 
	C195.754517,101.046783 202.393539,95.796059 201.329865,87.389099 
	C202.750000,85.622025 203.839920,84.342545 204.945770,82.889969 
	C204.961700,82.716881 204.950012,82.369438 204.950012,82.369438 
	C206.728165,83.173660 208.506332,83.977882 210.643402,84.892868 
	C211.131699,85.884041 211.261093,86.764435 211.195847,87.822876 
z"/>
<path fill="#40CE91" opacity="1.000000" stroke="none" 
	d="
M204.669022,82.065277 
	C204.950012,82.369438 204.961700,82.716881 204.507584,82.881165 
	C201.690933,83.093407 199.328400,83.141373 196.626953,83.140335 
	C194.848190,83.083519 193.408325,83.075699 191.968475,83.067886 
	C189.205429,83.292328 186.442398,83.516777 183.051025,83.589188 
	C180.622589,83.316757 178.822510,83.196358 177.022415,83.075951 
	C174.612106,83.093155 172.201797,83.110352 168.923233,83.121307 
	C163.028061,83.094498 158.001129,83.073936 152.509354,83.065170 
	C147.055145,82.685722 142.065781,82.294487 137.076431,81.903244 
	C138.174820,81.689545 139.273224,81.289597 140.371582,81.289749 
	C160.903442,81.292603 181.435303,81.338730 201.967102,81.399124 
	C202.774429,81.401497 203.581070,81.635201 204.669022,82.065277 
z"/>
<path fill="#2C8F62" opacity="1.000000" stroke="none" 
	d="
M136.723328,81.773247 
	C142.065781,82.294487 147.055145,82.685722 152.518005,83.387711 
	C152.993118,84.129929 152.994720,84.561386 152.529877,84.994530 
	C147.048584,85.000282 142.033768,85.004341 136.764496,85.005219 
	C136.340408,85.000877 136.170761,84.999718 135.572388,84.998657 
	C133.428513,84.995132 131.713333,84.991516 129.997955,84.690475 
	C129.990799,83.997528 129.983826,83.602005 129.976868,83.206482 
	C131.504791,83.002083 133.032730,82.797684 134.739258,82.261520 
	C135.401978,81.834259 135.886108,81.738754 136.723328,81.773247 
z"/>
<path fill="#2BA36E" opacity="1.000000" stroke="none" 
	d="
M113.950058,169.436523 
	C115.331024,169.745377 116.655701,170.490540 117.991257,171.618774 
	C117.560921,174.877762 119.579498,178.733948 114.479149,179.948380 
	C114.060043,179.236969 114.015457,178.479568 114.193726,177.258087 
	C114.306366,176.535019 114.196152,176.276031 114.085938,176.017059 
	C114.021881,173.968994 113.957832,171.920929 113.950058,169.436523 
z"/>
<path fill="#169D66" opacity="1.000000" stroke="none" 
	d="
M115.005783,155.001602 
	C114.848236,156.505783 114.690697,158.009949 114.242325,159.751038 
	C113.888885,159.559525 113.826271,159.131073 113.913086,157.958313 
	C113.980957,155.773819 113.899406,154.333633 113.817848,152.893463 
	C113.778015,152.506012 113.738182,152.118561 113.741096,151.438644 
	C113.875824,149.411896 113.967804,147.677612 114.306671,145.663025 
	C114.710609,145.923721 114.867645,146.464691 115.024681,147.005676 
	C115.021713,147.448303 115.018753,147.890915 115.011574,149.094269 
	C115.006828,151.570526 115.006302,153.286057 115.005783,155.001602 
z"/>
<path fill="#40CE91" opacity="1.000000" stroke="none" 
	d="
M113.677551,153.193695 
	C113.899406,154.333633 113.980957,155.773819 113.959213,157.634445 
	C113.749695,156.534576 113.643471,155.014236 113.677551,153.193695 
z"/>
<path fill="#35B97F" opacity="1.000000" stroke="none" 
	d="
M139.974457,210.412567 
	C140.035217,209.848022 140.333389,209.204590 140.829758,208.809906 
	C140.755936,209.483643 140.483917,209.908661 139.974457,210.412567 
z"/>
<path fill="#40CE91" opacity="1.000000" stroke="none" 
	d="
M113.707855,160.055847 
	C113.859550,160.121948 113.901115,160.316864 113.900078,160.806473 
	C113.770889,160.795670 113.684311,160.490158 113.707855,160.055847 
z"/>
<path fill="#169D66" opacity="1.000000" stroke="none" 
	d="
M114.031723,176.258087 
	C114.196152,176.276031 114.306366,176.535019 114.264969,176.884064 
	C114.113365,176.974152 113.977509,176.499100 114.031723,176.258087 
z"/>
<path fill="#F6FCFB" opacity="1.000000" stroke="none" 
	d="
M9.069227,113.146042 
	C8.157928,115.946877 6.852200,118.722565 5.330321,121.768265 
	C-0.158690,119.980392 4.620886,117.423058 5.020564,115.262886 
	C5.188612,114.354614 7.395023,113.823479 9.069227,113.146042 
z"/>
<path fill="#299D6A" opacity="1.000000" stroke="none" 
	d="
M115.404419,146.992676 
	C114.867645,146.464691 114.710609,145.923721 114.316528,145.226273 
	C113.745453,139.014679 113.411423,132.959549 113.470810,126.437096 
	C117.633873,122.531631 121.733368,119.380791 125.062401,115.558853 
	C127.460060,112.806190 128.495010,108.902313 130.736984,105.970070 
	C134.290543,101.322449 138.400757,97.104477 142.163071,92.610641 
	C143.912277,90.521332 145.397522,88.211029 147.439697,86.000320 
	C149.918381,86.000526 151.959793,86.001328 154.001221,86.002136 
	C151.230545,90.604881 148.545807,95.262123 145.669876,99.798141 
	C140.841171,107.414162 135.858887,114.932678 131.006531,122.533920 
	C128.919937,125.802574 126.955650,129.151855 125.019089,132.512497 
	C124.226768,133.887451 123.824272,135.502548 122.949875,136.811646 
	C120.647530,140.258575 118.183685,143.597641 115.404419,146.992676 
z"/>
<path fill="#269362" opacity="1.000000" stroke="none" 
	d="
M147.002441,86.000916 
	C145.397522,88.211029 143.912277,90.521332 142.163071,92.610641 
	C138.400757,97.104477 134.290543,101.322449 130.736984,105.970070 
	C128.495010,108.902313 127.460060,112.806190 125.062401,115.558853 
	C121.733368,119.380791 117.633873,122.531631 113.516464,125.969116 
	C113.143600,122.936424 113.118492,119.904373 113.537689,116.409416 
	C114.654861,114.185730 115.264008,112.397224 116.015602,110.670731 
	C117.125084,108.122086 118.044853,105.417496 119.597496,103.158836 
	C120.796379,101.414787 123.047218,100.431877 124.473694,98.798996 
	C128.416107,94.286156 132.171677,89.610092 136.001114,84.998558 
	C136.170761,84.999718 136.340408,85.000877 137.046692,85.295807 
	C140.723038,85.726685 143.862747,85.863800 147.002441,86.000916 
z"/>
<path fill="#218A5B" opacity="1.000000" stroke="none" 
	d="
M135.572388,84.998657 
	C132.171677,89.610092 128.416107,94.286156 124.473694,98.798996 
	C123.047218,100.431877 120.796379,101.414787 119.597496,103.158836 
	C118.044853,105.417496 117.125084,108.122086 116.015602,110.670731 
	C115.264008,112.397224 114.654861,114.185730 113.591843,115.956757 
	C113.139648,105.953468 113.077606,95.939919 113.509018,85.461655 
	C119.334366,84.993919 124.666267,84.990906 129.998169,84.987900 
	C131.713333,84.991516 133.428513,84.995132 135.572388,84.998657 
z"/>
<path fill="#28825A" opacity="1.000000" stroke="none" 
	d="
M129.997955,84.690475 
	C124.666267,84.990906 119.334366,84.993919 113.543182,84.993500 
	C114.310768,84.341431 115.510857,83.203026 116.769424,83.134232 
	C120.851524,82.911133 124.955055,83.080101 129.513611,83.152283 
	C129.983826,83.602005 129.990799,83.997528 129.997955,84.690475 
z"/>
<path fill="#31B178" opacity="1.000000" stroke="none" 
	d="
M117.994888,218.004318 
	C117.352180,215.550598 115.864197,212.969940 116.210426,210.664749 
	C117.869186,199.620697 120.568710,188.931900 126.676888,179.217209 
	C129.320297,175.013031 130.198105,169.721176 132.046890,164.989426 
	C134.582916,158.498734 137.313751,152.084442 139.896790,145.611740 
	C141.990952,140.364151 143.993195,135.079834 146.023972,129.807083 
	C146.140976,129.503250 146.074753,129.120941 146.215836,128.835449 
	C149.601044,121.985359 152.480865,114.813667 156.540680,108.387932 
	C161.092789,101.183044 166.626511,94.583366 171.971237,87.911125 
	C172.734009,86.958908 174.836624,87.079971 176.609192,87.190880 
	C172.583878,93.809433 168.573807,100.188477 163.867493,106.004097 
	C159.130554,111.857582 158.896057,118.980843 156.862946,125.641037 
	C155.671768,129.543213 153.248703,133.067596 151.397552,136.770813 
	C150.575867,138.414612 149.650787,140.027618 149.034805,141.748444 
	C148.103348,144.350632 147.763092,147.220276 146.522079,149.643631 
	C144.306870,153.969330 141.101517,157.834518 139.234314,162.280380 
	C136.778793,168.127060 135.637238,174.526443 133.172318,180.368164 
	C129.406326,189.293365 124.802551,197.862839 120.946404,206.753326 
	C119.421539,210.268982 118.947433,214.240417 117.994888,218.004318 
z"/>
<path fill="#33B47B" opacity="1.000000" stroke="none" 
	d="
M118.190147,218.261993 
	C118.947433,214.240417 119.421539,210.268982 120.946404,206.753326 
	C124.802551,197.862839 129.406326,189.293365 133.172318,180.368164 
	C135.637238,174.526443 136.778793,168.127060 139.234314,162.280380 
	C141.101517,157.834518 144.306870,153.969330 146.522079,149.643631 
	C147.763092,147.220276 148.103348,144.350632 149.034805,141.748444 
	C149.650787,140.027618 150.575867,138.414612 151.397552,136.770813 
	C153.248703,133.067596 155.671768,129.543213 156.862946,125.641037 
	C158.896057,118.980843 159.130554,111.857582 163.867493,106.004097 
	C168.573807,100.188477 172.583878,93.809433 176.948105,87.338272 
	C176.997421,86.554573 176.997879,86.110069 177.337128,85.479294 
	C179.115845,85.527878 180.555786,85.762718 181.995728,85.997559 
	C181.996689,86.164619 181.997665,86.331673 181.729706,86.939857 
	C179.237961,90.054741 176.510742,92.455513 174.888000,95.454018 
	C170.231750,104.057793 165.957214,112.871864 161.690277,121.679642 
	C160.778580,123.561607 160.620544,125.795250 159.951294,127.812469 
	C159.440643,129.351654 159.071625,131.539154 157.940109,132.156769 
	C154.714645,133.917282 154.998169,136.625916 154.969727,139.463165 
	C154.958405,140.594208 154.869019,141.847488 154.381119,142.829468 
	C152.250702,147.117294 149.774643,151.239868 147.768158,155.581467 
	C143.761246,164.251648 139.923859,173.001816 136.129196,181.767746 
	C134.196503,186.232391 132.485901,190.794144 130.716660,195.328293 
	C129.379440,198.755219 129.003052,203.128494 126.614357,205.450058 
	C122.183357,209.756500 121.635605,214.560638 121.997658,220.004272 
	C120.793571,219.509415 119.589485,219.014557 118.190147,218.261993 
z"/>
<path fill="#33B67D" opacity="1.000000" stroke="none" 
	d="
M122.243576,220.005554 
	C121.635605,214.560638 122.183357,209.756500 126.614357,205.450058 
	C129.003052,203.128494 129.379440,198.755219 130.716660,195.328293 
	C132.485901,190.794144 134.196503,186.232391 136.129196,181.767746 
	C139.923859,173.001816 143.761246,164.251648 147.768158,155.581467 
	C149.774643,151.239868 152.250702,147.117294 154.381119,142.829468 
	C154.869019,141.847488 154.958405,140.594208 154.969727,139.463165 
	C154.998169,136.625916 154.714645,133.917282 157.940109,132.156769 
	C159.071625,131.539154 159.440643,129.351654 159.951294,127.812469 
	C160.620544,125.795250 160.778580,123.561607 161.690277,121.679642 
	C165.957214,112.871864 170.231750,104.057793 174.888000,95.454018 
	C176.510742,92.455513 179.237961,90.054741 181.730682,87.190445 
	C180.981476,89.841721 180.493973,93.058006 178.818100,95.437233 
	C176.329437,98.970390 173.893509,101.662910 173.345016,106.772392 
	C172.708206,112.704460 168.318497,118.235542 165.548386,123.936150 
	C163.078644,129.018631 160.498856,134.050308 158.144699,139.185593 
	C155.391434,145.191483 152.654388,151.216324 150.239944,157.362427 
	C148.248383,162.432053 146.794449,167.710602 144.977341,172.852417 
	C144.449829,174.345078 143.445435,175.662918 142.742783,177.101501 
	C141.786774,179.058823 140.847595,181.029221 140.019012,183.042511 
	C139.294128,184.803894 138.866959,186.694183 138.074814,188.420425 
	C134.534058,196.136353 130.169373,203.584808 127.683121,211.619064 
	C126.700539,214.794250 126.961487,217.908646 123.265930,219.808929 
	C122.981339,220.010361 122.489502,220.006851 122.243576,220.005554 
z"/>
<path fill="#329F6E" opacity="1.000000" stroke="none" 
	d="
M152.996338,84.992844 
	C152.994720,84.561386 152.993118,84.129929 152.982849,83.375923 
	C158.001129,83.073936 163.028061,83.094498 168.514908,83.171677 
	C168.515976,83.795845 168.057114,84.363396 166.830963,84.966042 
	C161.707901,84.998367 157.352127,84.995605 152.996338,84.992844 
z"/>
<path fill="#1FA26A" opacity="1.000000" stroke="none" 
	d="
M152.529877,84.994530 
	C157.352127,84.995605 161.707901,84.998367 166.527344,84.999893 
	C166.524963,85.318161 166.058960,85.637672 165.295563,85.978745 
	C163.284363,85.999924 161.570557,85.999542 159.428375,85.999886 
	C157.611420,86.000648 156.222839,86.000687 154.417740,86.001434 
	C151.959793,86.001328 149.918381,86.000526 147.439697,86.000320 
	C143.862747,85.863800 140.723038,85.726685 137.301147,85.298981 
	C142.033768,85.004341 147.048584,85.000282 152.529877,84.994530 
z"/>
<path fill="#31B178" opacity="1.000000" stroke="none" 
	d="
M182.014771,85.707504 
	C180.555786,85.762718 179.115845,85.527878 177.337540,85.145905 
	C177.001358,84.570824 177.003540,84.142876 177.014069,83.395432 
	C178.822510,83.196358 180.622589,83.316757 182.666565,83.723038 
	C182.618225,84.478424 182.326004,84.947945 182.014771,85.707504 
z"/>
<path fill="#33B47B" opacity="1.000000" stroke="none" 
	d="
M123.105865,221.223877 
	C123.714867,221.135178 124.430824,221.263626 125.146790,221.392090 
	C124.936981,221.578140 124.727173,221.764175 124.251572,221.976044 
	C123.667114,221.898987 123.409470,221.712036 123.105865,221.223877 
z"/>
<path fill="#36BC82" opacity="1.000000" stroke="none" 
	d="
M177.000000,122.000305 
	C176.999924,122.444618 176.999847,122.888924 176.644043,123.704041 
	C170.432129,127.332047 170.864304,134.081329 168.000000,139.000000 
	C168.000000,139.000000 168.000000,139.500000 167.633987,139.813416 
	C165.512192,145.084763 163.756393,150.042679 162.000610,155.000610 
	C162.000443,155.444916 162.000290,155.889236 161.640839,156.706238 
	C159.583649,159.488617 158.214279,162.252289 156.100677,164.214127 
	C153.713348,166.430023 154.397919,168.048279 156.000610,170.000565 
	C155.374329,171.459259 154.838425,172.966675 154.088333,174.358658 
	C153.626923,175.214966 152.608093,175.796417 152.234177,176.670166 
	C149.990738,181.912659 147.961487,187.248138 145.658966,192.463516 
	C144.150101,195.881210 143.435089,200.069504 138.388367,200.999664 
	C140.296722,196.326355 142.896088,191.773193 144.821625,186.950958 
	C148.154984,178.603027 150.945755,170.039764 154.202560,161.659500 
	C156.645126,155.374420 159.430969,149.221252 162.128082,143.037323 
	C163.122177,140.758057 164.384781,138.595795 165.376541,136.315643 
	C167.629608,131.135498 169.442825,125.731995 172.067551,120.752823 
	C176.412827,112.509766 176.637848,102.522507 183.127975,95.201317 
	C184.169037,94.026955 184.290085,92.068306 185.253693,90.785675 
	C186.338165,89.342155 187.895233,88.253685 189.623352,87.004921 
	C190.000000,86.999084 190.000000,87.000000 189.847900,87.310089 
	C185.210358,95.343079 180.573181,102.999428 178.729996,112.218292 
	C177.564850,114.126747 176.258392,115.736771 175.908447,117.533127 
	C175.642273,118.899445 176.591522,120.502548 177.000000,122.000305 
z"/>
<path fill="#39C286" opacity="1.000000" stroke="none" 
	d="
M196.965866,83.189331 
	C199.328400,83.141373 201.690933,83.093407 204.491638,83.054260 
	C203.839920,84.342545 202.750000,85.622025 201.329742,86.951141 
	C200.554611,87.000267 200.109818,86.999748 199.062073,86.712723 
	C196.306473,86.284042 194.153839,86.141869 192.001221,85.999695 
	C192.001221,85.999695 192.000000,86.000000 192.000610,86.000153 
	C192.001022,85.833641 192.000809,85.666969 192.389648,85.250351 
	C194.174408,84.396713 195.570129,83.793022 196.965866,83.189331 
z"/>
<path fill="#38BD82" opacity="1.000000" stroke="none" 
	d="
M196.626953,83.140335 
	C195.570129,83.793022 194.174408,84.396713 192.389954,85.000351 
	C191.997787,84.570198 191.994339,84.140099 191.979675,83.388931 
	C193.408325,83.075699 194.848190,83.083519 196.626953,83.140335 
z"/>
<path fill="#38C286" opacity="1.000000" stroke="none" 
	d="
M197.999390,87.000305 
	C200.667130,92.741707 194.750916,95.741432 193.631912,100.346626 
	C192.365646,105.557747 191.015442,111.484818 187.646149,115.271606 
	C182.894745,120.611771 186.119797,129.130600 178.882874,133.292206 
	C176.652588,134.574738 176.351257,139.182846 175.128677,142.253098 
	C173.100571,147.346191 170.927429,152.385635 169.060303,157.536469 
	C168.441681,159.243011 168.577194,161.222931 168.367920,163.077850 
	C167.962784,162.572418 167.557663,162.066971 167.152527,161.561523 
	C165.638977,163.937408 164.125427,166.313293 162.306244,168.844604 
	C162.142242,167.380280 161.865326,165.569992 162.500427,164.174927 
	C164.827332,159.063721 167.722595,154.201874 169.893463,149.031830 
	C171.776382,144.547607 172.630157,139.629364 174.533356,135.155899 
	C178.939377,124.799469 183.735703,114.609695 188.310410,104.324165 
	C190.118286,100.259399 191.897690,96.169502 193.386810,91.983170 
	C193.821869,90.760078 193.211777,89.165207 193.457458,87.370956 
	C195.222580,87.000877 196.610992,87.000587 197.999390,87.000305 
z"/>
<path fill="#37BE83" opacity="1.000000" stroke="none" 
	d="
M179.000000,112.000000 
	C180.573181,102.999428 185.210358,95.343079 189.849289,87.310928 
	C190.297821,87.553833 190.983475,88.270210 190.830521,88.634003 
	C187.462509,96.644478 184.001602,104.615891 180.171021,112.578362 
	C179.584167,112.288544 179.322968,112.101227 179.000000,112.000000 
z"/>
<path fill="#37BE83" opacity="1.000000" stroke="none" 
	d="
M162.355118,154.961365 
	C163.756393,150.042679 165.512192,145.084763 167.633987,140.063416 
	C168.325256,145.714554 168.088455,151.229843 162.355118,154.961365 
z"/>
<path fill="#37BE83" opacity="1.000000" stroke="none" 
	d="
M156.356323,169.936218 
	C154.397919,168.048279 153.713348,166.430023 156.100677,164.214127 
	C158.214279,162.252289 159.583649,159.488617 161.640778,157.039474 
	C160.237350,161.290619 158.474701,165.581253 156.356323,169.936218 
z"/>
<path fill="#37BE83" opacity="1.000000" stroke="none" 
	d="
M168.357925,138.958984 
	C170.864304,134.081329 170.432129,127.332047 176.643845,124.037270 
	C174.238220,128.972458 171.477036,133.945221 168.357925,138.958984 
z"/>
<path fill="#37BE83" opacity="1.000000" stroke="none" 
	d="
M178.729996,112.218292 
	C179.322968,112.101227 179.584167,112.288544 179.891815,112.781128 
	C179.003311,115.751091 178.006607,118.501869 177.004959,121.626480 
	C176.591522,120.502548 175.642273,118.899445 175.908447,117.533127 
	C176.258392,115.736771 177.564850,114.126747 178.729996,112.218292 
z"/>
<path fill="#38BD82" opacity="1.000000" stroke="none" 
	d="
M198.249008,86.999748 
	C196.610992,87.000587 195.222580,87.000877 193.417694,87.002106 
	C192.678055,86.900948 192.416504,86.713066 192.108902,86.219543 
	C194.153839,86.141869 196.306473,86.284042 198.728485,86.712158 
	C198.997864,86.998108 198.498627,86.999191 198.249008,86.999748 
z"/>
<path fill="#299D6A" opacity="1.000000" stroke="none" 
	d="
M115.366013,154.994232 
	C115.006302,153.286057 115.006828,151.570526 115.013626,149.426239 
	C117.428787,150.737625 119.075531,152.567657 115.366013,154.994232 
z"/>
</svg>