<svg version="1.1" id="Layer_1" xmlns="http://www.w3.org/2000/svg" xmlns:xlink="http://www.w3.org/1999/xlink" x="0px" y="0px"
	 width="100%" viewBox="0 0 225 225" enable-background="new 0 0 225 225" xml:space="preserve">
<path fill="#FEFEFE" opacity="1.000000" stroke="none"
	d="
M0.999999,210.000000
	C1.000000,140.380753 1.000000,70.761520 1.000000,1.071138
	C75.901459,1.071138 150.803009,1.071138 226.000000,1.071138
	C226.000000,70.353951 226.000000,139.708313 225.645813,209.500671
	C224.832565,209.054840 224.406967,208.151718 223.909698,207.289978
	C196.214813,159.296600 168.520264,111.303047 140.810074,63.318520
	C131.789917,47.698681 122.727333,32.103344 113.554710,16.273411
	C112.834549,17.432264 112.287285,18.260201 111.791656,19.117970
	C81.824234,70.981979 51.884171,122.861824 21.879948,174.704529
	C15.032963,186.535080 7.965813,198.238220 0.999999,210.000000
z"/>
<path fill="#010101" opacity="1.000000" stroke="none"
	d="
M0.999999,210.250000
	C7.965813,198.238220 15.032963,186.535080 21.879948,174.704529
	C51.884171,122.861824 81.824234,70.981979 111.791656,19.117970
	C112.287285,18.260201 112.834549,17.432264 113.554710,16.273411
	C122.727333,32.103344 131.789917,47.698681 140.810074,63.318520
	C168.520264,111.303047 196.214813,159.296600 223.909698,207.289978
	C224.406967,208.151718 224.832565,209.054840 225.645813,209.969330
	C226.000000,210.000000 226.000000,210.500000 225.547333,210.619003
	C152.047394,210.757141 79.000114,210.774918 5.952839,210.803879
	C4.301867,210.804535 2.650945,210.931793 1.000000,211.000000
	C1.000000,211.000000 1.000000,210.500000 0.999999,210.250000
z"/>
<path fill="#FFFFFF" opacity="1.000000" stroke="none"
	d="
M1.000000,211.472656
	C2.650945,210.931793 4.301867,210.804535 5.952839,210.803879
	C79.000114,210.774918 152.047394,210.757141 225.547333,210.869003
	C226.000000,215.991257 226.000000,220.982498 226.000000,225.967072
	C150.999985,225.960403 75.999985,225.960403 1.000000,225.960403
	C1.000000,221.262314 1.000000,216.603806 1.000000,211.472656
z"/>
</svg>